<?xml version="1.0" standalone="no"?>
<!DOCTYPE svg PUBLIC "-//W3C//DTD SVG 1.1//EN" "http://www.w3.org/Graphics/SVG/1.1/DTD/svg11.dtd" >
<svg xmlns="http://www.w3.org/2000/svg" xmlns:xlink="http://www.w3.org/1999/xlink" version="1.1">
<metadata>
Created by FontForge 20190801 at Tue Jul 31 11:31:39 2018
 By Jimmy Wärting
Pangram Pangram\(R\)
</metadata>
<defs>
<font id="MonumentExtended-Bold" horiz-adv-x="269" >
  <font-face 
    font-family="Monument Extended"
    font-weight="700"
    font-stretch="normal"
    units-per-em="1000"
    panose-1="0 0 8 0 0 0 0 0 0 0"
    ascent="800"
    descent="-200"
    x-height="594"
    cap-height="700"
    bbox="-1052 -333 2292 1082"
    underline-thickness="50"
    underline-position="-100"
    unicode-range="U+0020-25CA"
  />
<missing-glyph horiz-adv-x="550" 
d="M451 800v-1100h-349v1100h349zM366 726h-181v-36h71v-41h-72v-36h182v36h-72v41h72v36zM294 584h-110v-114h182v37h-72v77zM256 547v-40h-36v40h36zM366 440h-182v-36h72v-41h-72v-36h110v77h72v36zM366 374h-36v-72h-146v-38h182v110zM366 240h-110v-61h38v25h36v-52
h-110v88h-36v-124h182v124zM366 50h-182v-124h182v124zM330 14v-52h-110v52h110zM366 -100h-182v-36h77l-77 -52v-36h182v36h-112l77 52h35v36z" />
    <glyph glyph-name=".notdef" horiz-adv-x="550" 
d="M451 800v-1100h-349v1100h349zM366 726h-181v-36h71v-41h-72v-36h182v36h-72v41h72v36zM294 584h-110v-114h182v37h-72v77zM256 547v-40h-36v40h36zM366 440h-182v-36h72v-41h-72v-36h110v77h72v36zM366 374h-36v-72h-146v-38h182v110zM366 240h-110v-61h38v25h36v-52
h-110v88h-36v-124h182v124zM366 50h-182v-124h182v124zM330 14v-52h-110v52h110zM366 -100h-182v-36h77l-77 -52v-36h182v36h-112l77 52h35v36z" />
    <glyph glyph-name="A" unicode="A" horiz-adv-x="1009" 
d="M745 0l-60 137h-361l-60 -137h-243l326 700h315l325 -700h-242zM394 295h221l-110 251z" />
    <glyph glyph-name="Aacute" unicode="&#xc1;" horiz-adv-x="1009" 
d="M698 980v-128l-389 -80v128zM745 0l-60 137h-361l-60 -137h-243l326 700h315l325 -700h-242zM394 295h221l-110 251z" />
    <glyph glyph-name="Abreve" unicode="&#x102;" horiz-adv-x="1009" 
d="M504 759c-124 0 -227 40 -227 217h115c0 -76 38 -106 112 -106s113 30 113 106h114c0 -177 -103 -217 -227 -217zM745 0l-60 137h-361l-60 -137h-243l326 700h315l325 -700h-242zM394 295h221l-110 251z" />
    <glyph glyph-name="Acircumflex" unicode="&#xc2;" horiz-adv-x="1009" 
d="M711 772l-207 80l-207 -80v128l207 80l207 -80v-128zM745 0l-60 137h-361l-60 -137h-243l326 700h315l325 -700h-242zM394 295h221l-110 251z" />
    <glyph glyph-name="Adieresis" unicode="&#xc4;" horiz-adv-x="1009" 
d="M468 947v-162h-189v162h189zM728 947v-162h-189v162h189zM745 0l-60 137h-361l-60 -137h-243l326 700h315l325 -700h-242zM394 295h221l-110 251z" />
    <glyph glyph-name="Agrave" unicode="&#xc0;" horiz-adv-x="1009" 
d="M699 900v-128l-389 80v128zM745 0l-60 137h-361l-60 -137h-243l326 700h315l325 -700h-242zM394 295h221l-110 251z" />
    <glyph glyph-name="Amacron" unicode="&#x100;" horiz-adv-x="1009" 
d="M738 910v-128h-469v128h469zM745 0l-60 137h-361l-60 -137h-243l326 700h315l325 -700h-242zM394 295h221l-110 251z" />
    <glyph glyph-name="Aogonek" unicode="&#x104;" horiz-adv-x="1009" 
d="M849 -58c0 -43 70 -43 153 -43v-129c-187 0 -288 19 -288 117c0 44 26 80 77 113h-46l-60 137h-361l-60 -137h-243l326 700h315l325 -700h-94c-21 -17 -44 -34 -44 -58zM394 295h221l-110 251z" />
    <glyph glyph-name="Aring" unicode="&#xc5;" horiz-adv-x="1009" 
d="M504 766c-162 0 -210 49 -210 132s48 132 210 132c163 0 210 -49 210 -132s-47 -132 -210 -132zM504 946c-56 0 -95 -8 -95 -48s39 -48 95 -48c57 0 96 8 96 48s-39 48 -96 48zM745 0l-60 137h-361l-60 -137h-243l326 700h315l325 -700h-242zM394 295h221l-110 251z" />
    <glyph glyph-name="Atilde" unicode="&#xc3;" horiz-adv-x="1009" 
d="M430 850c-40 0 -53 -25 -53 -74h-163c0 106 39 210 149 210c109 0 134 -84 216 -84c40 0 53 25 53 74h162c0 -106 -38 -210 -148 -210c-109 0 -134 84 -216 84zM745 0l-60 137h-361l-60 -137h-243l326 700h315l325 -700h-242zM394 295h221l-110 251z" />
    <glyph glyph-name="AE" unicode="&#xc6;" horiz-adv-x="1368" 
d="M1346 529h-520v-104h520v-150h-520v-104h520v-171h-740v137h-282l-59 -137h-244l316 700h1009v-171zM606 536h-110l-104 -241h214v241z" />
    <glyph glyph-name="B" unicode="B" horiz-adv-x="921" 
d="M797 386c61 -40 102 -102 102 -180c0 -117 -69 -206 -228 -206h-640v700h613c159 0 208 -76 208 -181c0 -47 -21 -94 -55 -133zM251 550v-110h306c38 0 75 0 75 55s-37 55 -75 55h-306zM604 164c38 0 75 0 75 56c0 55 -37 55 -75 55h-353v-111h353z" />
    <glyph glyph-name="C" unicode="C" horiz-adv-x="920" 
d="M21 351c0 237 132 359 440 359c280 0 423 -102 437 -313h-224c-13 89 -83 127 -213 127c-168 0 -220 -65 -220 -173c0 -109 53 -175 220 -175c130 0 200 39 213 129h224c-14 -212 -157 -315 -437 -315c-308 0 -440 123 -440 361z" />
    <glyph glyph-name="Cacute" unicode="&#x106;" horiz-adv-x="920" 
d="M265 900l389 80v-128l-389 -80v128zM21 351c0 237 132 359 440 359c280 0 423 -102 437 -313h-224c-13 89 -83 127 -213 127c-168 0 -220 -65 -220 -173c0 -109 53 -175 220 -175c130 0 200 39 213 129h224c-14 -212 -157 -315 -437 -315c-308 0 -440 123 -440 361z" />
    <glyph glyph-name="Ccaron" unicode="&#x10c;" horiz-adv-x="920" 
d="M666 854l-207 -80l-207 80v128l207 -80l207 80v-128zM461 176c130 0 200 39 213 129h224c-14 -212 -157 -315 -437 -315c-308 0 -440 123 -440 361c0 237 132 359 440 359c280 0 423 -102 437 -313h-224c-13 89 -83 127 -213 127c-168 0 -220 -65 -220 -173
c0 -109 53 -175 220 -175z" />
    <glyph glyph-name="Ccedilla" unicode="&#xc7;" horiz-adv-x="920" 
d="M461 176c130 0 200 39 213 129h224c-13 -196 -137 -299 -377 -313l-15 -39c61 19 176 27 176 -69c0 -114 -162 -133 -316 -114v88c131 -19 182 0 182 35c0 24 -26 32 -104 14l-59 58l12 27c-262 16 -376 138 -376 359c0 237 132 359 440 359c280 0 423 -102 437 -313
h-224c-13 89 -83 127 -213 127c-168 0 -220 -65 -220 -173c0 -109 53 -175 220 -175z" />
    <glyph glyph-name="Cdotaccent" unicode="&#x10a;" horiz-adv-x="920" 
d="M351 947h218v-162h-218v162zM21 351c0 237 132 359 440 359c280 0 423 -102 437 -313h-224c-13 89 -83 127 -213 127c-168 0 -220 -65 -220 -173c0 -109 53 -175 220 -175c130 0 200 39 213 129h224c-14 -212 -157 -315 -437 -315c-308 0 -440 123 -440 361z" />
    <glyph glyph-name="D" unicode="D" horiz-adv-x="901" 
d="M546 700c174 0 333 -112 333 -350s-159 -350 -333 -350h-515v700h515zM471 186c96 0 188 14 188 164s-92 164 -188 164h-220v-328h220z" />
    <glyph glyph-name="Eth" unicode="&#xd0;" horiz-adv-x="981" 
d="M619 700c174 0 333 -112 333 -350s-159 -350 -333 -350h-515v286h-73v128h73v286h515zM544 186c96 0 188 14 188 164s-92 164 -188 164h-220v-100h187v-128h-187v-100h220z" />
    <glyph glyph-name="Dcaron" unicode="&#x10e;" horiz-adv-x="901" 
d="M591 854l-207 -80l-207 80v128l207 -80l207 80v-128zM546 700c174 0 333 -112 333 -350s-159 -350 -333 -350h-515v700h515zM471 186c96 0 188 14 188 164s-92 164 -188 164h-220v-328h220z" />
    <glyph glyph-name="Dcroat" unicode="&#x110;" horiz-adv-x="981" 
d="M619 700c174 0 333 -112 333 -350s-159 -350 -333 -350h-515v286h-73v128h73v286h515zM544 186c96 0 188 14 188 164s-92 164 -188 164h-220v-100h187v-128h-187v-100h220z" />
    <glyph glyph-name="E" unicode="E" horiz-adv-x="793" 
d="M771 529h-520v-104h520v-150h-520v-104h520v-171h-740v700h740v-171z" />
    <glyph glyph-name="Eacute" unicode="&#xc9;" horiz-adv-x="793" 
d="M595 980v-128l-389 -80v128zM771 529h-520v-104h520v-150h-520v-104h520v-171h-740v700h740v-171z" />
    <glyph glyph-name="Ecaron" unicode="&#x11a;" horiz-adv-x="793" 
d="M607 854l-207 -80l-207 80v128l207 -80l207 80v-128zM771 529h-520v-104h520v-150h-520v-104h520v-171h-740v700h740v-171z" />
    <glyph glyph-name="Ecircumflex" unicode="&#xca;" horiz-adv-x="793" 
d="M608 772l-207 80l-207 -80v128l207 80l207 -80v-128zM771 529h-520v-104h520v-150h-520v-104h520v-171h-740v700h740v-171z" />
    <glyph glyph-name="Edieresis" unicode="&#xcb;" horiz-adv-x="793" 
d="M365 947v-162h-189v162h189zM625 947v-162h-189v162h189zM771 529h-520v-104h520v-150h-520v-104h520v-171h-740v700h740v-171z" />
    <glyph glyph-name="Edotaccent" unicode="&#x116;" horiz-adv-x="793" 
d="M510 947v-162h-218v162h218zM771 529h-520v-104h520v-150h-520v-104h520v-171h-740v700h740v-171z" />
    <glyph glyph-name="Egrave" unicode="&#xc8;" horiz-adv-x="793" 
d="M596 900v-128l-389 80v128zM771 529h-520v-104h520v-150h-520v-104h520v-171h-740v700h740v-171z" />
    <glyph glyph-name="Emacron" unicode="&#x112;" horiz-adv-x="793" 
d="M635 910v-128h-469v128h469zM771 529h-520v-104h520v-150h-520v-104h520v-171h-740v700h740v-171z" />
    <glyph glyph-name="Eogonek" unicode="&#x118;" horiz-adv-x="793" 
d="M629 -58c0 -43 70 -43 153 -43v-129c-187 0 -288 19 -288 117c0 44 26 80 77 113h-540v700h740v-171h-520v-104h520v-150h-520v-104h520v-171h-98c-21 -17 -44 -34 -44 -58z" />
    <glyph glyph-name="F" unicode="F" horiz-adv-x="793" 
d="M771 514h-520v-126h460v-186h-460v-202h-220v700h740v-186z" />
    <glyph glyph-name="G" unicode="G" horiz-adv-x="920" 
d="M449 250v128h449v-378h-141l-13 105c-63 -70 -162 -115 -310 -115c-258 0 -413 122 -413 361c0 237 155 359 443 359c280 0 423 -104 434 -286h-224c-10 44 -60 100 -210 100c-194 0 -223 -96 -223 -180c0 -85 30 -190 223 -190c137 0 203 46 210 96h-225z" />
    <glyph glyph-name="Gbreve" unicode="&#x11e;" horiz-adv-x="920" 
d="M460 759c-124 0 -227 40 -227 217h115c0 -76 38 -106 112 -106s113 30 113 106h114c0 -177 -103 -217 -227 -217zM449 250v128h449v-378h-141l-13 105c-63 -70 -162 -115 -310 -115c-258 0 -413 122 -413 361c0 237 155 359 443 359c280 0 423 -104 434 -286h-224
c-10 44 -60 100 -210 100c-194 0 -223 -96 -223 -180c0 -85 30 -190 223 -190c137 0 203 46 210 96h-225z" />
    <glyph glyph-name="Gcommaaccent" unicode="&#x122;" horiz-adv-x="920" 
d="M449 250v128h449v-378h-141l-13 105c-63 -70 -162 -115 -310 -115c-258 0 -413 122 -413 361c0 237 155 359 443 359c280 0 423 -104 434 -286h-224c-10 44 -60 100 -210 100c-194 0 -223 -96 -223 -180c0 -85 30 -190 223 -190c137 0 203 46 210 96h-225zM371 -223v114
h178v-114l-92 -110h-86l63 110h-63z" />
    <glyph glyph-name="Gdotaccent" unicode="&#x120;" horiz-adv-x="920" 
d="M569 947v-162h-218v162h218zM449 250v128h449v-378h-141l-13 105c-63 -70 -162 -115 -310 -115c-258 0 -413 122 -413 361c0 237 155 359 443 359c280 0 423 -104 434 -286h-224c-10 44 -60 100 -210 100c-194 0 -223 -96 -223 -180c0 -85 30 -190 223 -190
c137 0 203 46 210 96h-225z" />
    <glyph glyph-name="H" unicode="H" horiz-adv-x="993" 
d="M741 700h220v-700h-220v257h-490v-257h-220v700h220v-257h490v257z" />
    <glyph glyph-name="Hbar" unicode="&#x126;" horiz-adv-x="993" 
d="M996 634v-128h-35v-506h-220v257h-490v-257h-220v506h-35v128h35v66h220v-66h490v66h220v-66h35zM741 443v63h-490v-63h490z" />
    <glyph glyph-name="I" unicode="I" horiz-adv-x="283" 
d="M251 700v-700h-220v700h220z" />
    <glyph glyph-name="Iacute" unicode="&#xcd;" horiz-adv-x="283" 
d="M-54 900l389 80v-128l-389 -80v128zM251 700v-700h-220v700h220z" />
    <glyph glyph-name="Icircumflex" unicode="&#xce;" horiz-adv-x="283" 
d="M141 980l207 -80v-128l-207 80l-207 -80v128zM31 0v700h220v-700h-220z" />
    <glyph glyph-name="Idieresis" unicode="&#xcf;" horiz-adv-x="283" 
d="M-84 947h189v-162h-189v162zM176 947h189v-162h-189v162zM251 700v-700h-220v700h220z" />
    <glyph glyph-name="Idotaccent" unicode="&#x130;" horiz-adv-x="283" 
d="M32 947h218v-162h-218v162zM251 700v-700h-220v700h220z" />
    <glyph glyph-name="Igrave" unicode="&#xcc;" horiz-adv-x="283" 
d="M336 900v-128l-389 80v128zM251 700v-700h-220v700h220z" />
    <glyph glyph-name="Imacron" unicode="&#x12a;" horiz-adv-x="283" 
d="M-94 910h469v-128h-469v128zM251 700v-700h-220v700h220z" />
    <glyph glyph-name="Iogonek" unicode="&#x12e;" horiz-adv-x="283" 
d="M174 -58c0 -43 70 -43 153 -43v-129c-187 0 -288 19 -288 117c0 44 26 80 77 113h-85v700h220v-700h-33c-21 -17 -44 -34 -44 -58z" />
    <glyph glyph-name="J" unicode="J" horiz-adv-x="903" 
d="M871 700v-349c0 -243 -133 -361 -420 -361c-288 0 -420 117 -420 361h220c0 -86 27 -175 200 -175s200 90 200 175v163h-279v186h499z" />
    <glyph glyph-name="K" unicode="K" horiz-adv-x="1005" 
d="M983 700l-414 -320l414 -380h-304l-268 258l-160 -124v-134h-220v700h220v-318l411 318h321z" />
    <glyph glyph-name="Kcommaaccent" unicode="&#x136;" horiz-adv-x="1005" 
d="M983 700l-414 -320l414 -380h-304l-268 258l-160 -124v-134h-220v700h220v-318l411 318h321zM418 -223v114h178v-114l-92 -110h-86l63 110h-63z" />
    <glyph glyph-name="L" unicode="L" horiz-adv-x="773" 
d="M251 186h500v-186h-720v700h220v-514z" />
    <glyph glyph-name="Lacute" unicode="&#x139;" horiz-adv-x="773" 
d="M420 980v-128l-389 -80v128zM251 186h500v-186h-720v700h220v-514z" />
    <glyph glyph-name="Lcaron" unicode="&#x13d;" horiz-adv-x="773" 
d="M432 854l-207 -80l-207 80v128l207 -80l207 80v-128zM251 186h500v-186h-720v700h220v-514z" />
    <glyph glyph-name="Lcommaaccent" unicode="&#x13b;" horiz-adv-x="773" 
d="M251 186h500v-186h-720v700h220v-514zM302 -223v114h178v-114l-92 -110h-86l63 110h-63z" />
    <glyph glyph-name="Lslash" unicode="&#x141;" horiz-adv-x="854" 
d="M322 186h500v-186h-720v276l-71 -25v152l71 25v272h220v-193l231 82v-152l-231 -82v-169z" />
    <glyph glyph-name="M" unicode="M" horiz-adv-x="1135" 
d="M1103 700v-700h-220v408l-241 -408h-150l-241 409v-409h-220v700h282l255 -447l254 447h281z" />
    <glyph glyph-name="N" unicode="N" horiz-adv-x="965" 
d="M713 700h220v-700h-292l-390 476v-476h-220v700h293l389 -474v474z" />
    <glyph glyph-name="Nacute" unicode="&#x143;" horiz-adv-x="965" 
d="M676 980v-128l-389 -80v128zM713 700h220v-700h-292l-390 476v-476h-220v700h293l389 -474v474z" />
    <glyph glyph-name="Ncaron" unicode="&#x147;" horiz-adv-x="965" 
d="M688 854l-207 -80l-207 80v128l207 -80l207 80v-128zM713 700h220v-700h-292l-390 476v-476h-220v700h293l389 -474v474z" />
    <glyph glyph-name="Ncommaaccent" unicode="&#x145;" horiz-adv-x="965" 
d="M713 700h220v-700h-292l-390 476v-476h-220v700h293l389 -474v474zM393 -223v114h178v-114l-92 -110h-86l63 110h-63z" />
    <glyph glyph-name="Eng" unicode="&#x14a;" horiz-adv-x="965" 
d="M713 700h220v-700c0 -173 -82 -270 -278 -270c-59 0 -120 6 -177 18v166c49 -7 79 -13 131 -13c82 0 104 34 104 99h-72l-390 476v-476h-220v700h293l389 -474v474z" />
    <glyph glyph-name="Ntilde" unicode="&#xd1;" horiz-adv-x="965" 
d="M408 850c-40 0 -53 -25 -53 -74h-163c0 106 39 210 149 210c109 0 134 -84 216 -84c40 0 53 25 53 74h162c0 -106 -38 -210 -148 -210c-109 0 -134 84 -216 84zM713 700h220v-700h-292l-390 476v-476h-220v700h293l389 -474v474z" />
    <glyph glyph-name="O" unicode="O" horiz-adv-x="923" 
d="M461 -10c-308 0 -440 123 -440 361c0 237 132 359 440 359c307 0 440 -123 440 -359c0 -237 -133 -361 -440 -361zM461 176c171 0 220 67 220 175c0 107 -48 173 -220 173c-171 0 -220 -65 -220 -173c0 -109 50 -175 220 -175z" />
    <glyph glyph-name="Oacute" unicode="&#xd3;" horiz-adv-x="923" 
d="M266 900l389 80v-128l-389 -80v128zM461 -10c-308 0 -440 123 -440 361c0 237 132 359 440 359c307 0 440 -123 440 -359c0 -237 -133 -361 -440 -361zM461 176c171 0 220 67 220 175c0 107 -48 173 -220 173c-171 0 -220 -65 -220 -173c0 -109 50 -175 220 -175z" />
    <glyph glyph-name="Ocircumflex" unicode="&#xd4;" horiz-adv-x="923" 
d="M668 772l-207 80l-207 -80v128l207 80l207 -80v-128zM461 710c307 0 440 -123 440 -359c0 -237 -133 -361 -440 -361c-308 0 -440 123 -440 361c0 237 132 359 440 359zM461 176c171 0 220 67 220 175c0 107 -48 173 -220 173c-171 0 -220 -65 -220 -173
c0 -109 50 -175 220 -175z" />
    <glyph glyph-name="Odieresis" unicode="&#xd6;" horiz-adv-x="923" 
d="M236 947h189v-162h-189v162zM496 947h189v-162h-189v162zM461 -10c-308 0 -440 123 -440 361c0 237 132 359 440 359c307 0 440 -123 440 -359c0 -237 -133 -361 -440 -361zM461 176c171 0 220 67 220 175c0 107 -48 173 -220 173c-171 0 -220 -65 -220 -173
c0 -109 50 -175 220 -175z" />
    <glyph glyph-name="Ograve" unicode="&#xd2;" horiz-adv-x="923" 
d="M656 900v-128l-389 80v128zM461 -10c-308 0 -440 123 -440 361c0 237 132 359 440 359c307 0 440 -123 440 -359c0 -237 -133 -361 -440 -361zM461 176c171 0 220 67 220 175c0 107 -48 173 -220 173c-171 0 -220 -65 -220 -173c0 -109 50 -175 220 -175z" />
    <glyph glyph-name="Ohungarumlaut" unicode="&#x150;" horiz-adv-x="923" 
d="M224 912l207 80v-132l-207 -80v132zM491 912l207 80v-132l-207 -80v132zM461 -10c-308 0 -440 123 -440 361c0 237 132 359 440 359c307 0 440 -123 440 -359c0 -237 -133 -361 -440 -361zM461 176c171 0 220 67 220 175c0 107 -48 173 -220 173
c-171 0 -220 -65 -220 -173c0 -109 50 -175 220 -175z" />
    <glyph glyph-name="Omacron" unicode="&#x14c;" horiz-adv-x="923" 
d="M226 910h469v-128h-469v128zM461 -10c-308 0 -440 123 -440 361c0 237 132 359 440 359c307 0 440 -123 440 -359c0 -237 -133 -361 -440 -361zM461 176c171 0 220 67 220 175c0 107 -48 173 -220 173c-171 0 -220 -65 -220 -173c0 -109 50 -175 220 -175z" />
    <glyph glyph-name="Oslash" unicode="&#xd8;" horiz-adv-x="923" 
d="M642 691c179 -42 259 -157 259 -340c0 -237 -133 -361 -440 -361h-28l-23 -75h-158l28 93c-180 43 -259 158 -259 343c0 237 132 359 440 359h28l23 75h158zM241 351c0 -75 24 -130 94 -157l99 329c-149 -6 -193 -70 -193 -172zM488 177c149 7 193 72 193 174
c0 74 -23 129 -94 155z" />
    <glyph glyph-name="Otilde" unicode="&#xd5;" horiz-adv-x="923" 
d="M171 776c0 106 39 210 149 210c109 0 134 -84 216 -84c40 0 53 25 53 74h162c0 -106 -38 -210 -148 -210c-109 0 -134 84 -216 84c-40 0 -53 -25 -53 -74h-163zM461 -10c-308 0 -440 123 -440 361c0 237 132 359 440 359c307 0 440 -123 440 -359
c0 -237 -133 -361 -440 -361zM461 176c171 0 220 67 220 175c0 107 -48 173 -220 173c-171 0 -220 -65 -220 -173c0 -109 50 -175 220 -175z" />
    <glyph glyph-name="OE" unicode="&#x152;" horiz-adv-x="1523" 
d="M1502 529h-520v-104h520v-150h-520v-104h520v-171h-740v57c-71 -44 -170 -67 -301 -67c-308 0 -440 123 -440 361c0 237 132 359 440 359c131 0 230 -22 301 -66v56h740v-171zM461 176c171 0 220 67 220 175c0 107 -48 173 -220 173c-171 0 -220 -65 -220 -173
c0 -109 50 -175 220 -175z" />
    <glyph glyph-name="P" unicode="P" horiz-adv-x="871" 
d="M581 700c159 0 268 -106 268 -262s-109 -263 -268 -263h-330v-175h-220v700h550zM531 361c41 0 98 0 98 77c0 76 -57 76 -98 76h-280v-153h280z" />
    <glyph glyph-name="Thorn" unicode="&#xde;" horiz-adv-x="871" 
d="M581 613c159 0 268 -106 268 -262s-109 -263 -268 -263h-330v-88h-220v700h220v-87h330zM531 274c41 0 98 0 98 77c0 76 -57 76 -98 76h-280v-153h280z" />
    <glyph glyph-name="Q" unicode="Q" horiz-adv-x="1020" 
d="M988 53l-156 -156l-130 130c-63 -24 -143 -37 -241 -37c-308 0 -440 123 -440 361c0 237 132 359 440 359c307 0 440 -123 440 -359c0 -68 -11 -127 -34 -177zM461 176c171 0 220 67 220 175c0 107 -48 173 -220 173c-171 0 -220 -65 -220 -173c0 -109 50 -175 220 -175z
" />
    <glyph glyph-name="R" unicode="R" horiz-adv-x="871" 
d="M849 438c0 -108 -52 -193 -137 -234l126 -204h-260l-104 175h-223v-175h-220v700h550c159 0 268 -106 268 -262zM251 514v-153h280c41 0 98 0 98 77c0 76 -57 76 -98 76h-280z" />
    <glyph glyph-name="Racute" unicode="&#x154;" horiz-adv-x="871" 
d="M623 980v-128l-389 -80v128zM849 438c0 -108 -52 -193 -137 -234l126 -204h-260l-104 175h-223v-175h-220v700h550c159 0 268 -106 268 -262zM251 514v-153h280c41 0 98 0 98 77c0 76 -57 76 -98 76h-280z" />
    <glyph glyph-name="Rcaron" unicode="&#x158;" horiz-adv-x="871" 
d="M635 854l-207 -80l-207 80v128l207 -80l207 80v-128zM849 438c0 -108 -52 -193 -137 -234l126 -204h-260l-104 175h-223v-175h-220v700h550c159 0 268 -106 268 -262zM251 514v-153h280c41 0 98 0 98 77c0 76 -57 76 -98 76h-280z" />
    <glyph glyph-name="Rcommaaccent" unicode="&#x156;" horiz-adv-x="871" 
d="M849 438c0 -108 -52 -193 -137 -234l126 -204h-260l-104 175h-223v-175h-220v700h550c159 0 268 -106 268 -262zM251 514v-153h280c41 0 98 0 98 77c0 76 -57 76 -98 76h-280zM340 -223v114h178v-114l-92 -110h-86l63 110h-63z" />
    <glyph glyph-name="S" unicode="S" horiz-adv-x="937" 
d="M21 244h220c0 -54 47 -83 243 -83c171 0 211 16 211 56c0 45 -31 51 -227 59c-310 12 -431 62 -431 223c0 154 154 211 423 211s425 -66 425 -242h-220c0 57 -68 71 -225 71c-149 0 -183 -12 -183 -51c0 -41 34 -46 211 -54c276 -13 447 -30 447 -211
c0 -190 -168 -233 -441 -233c-287 0 -453 49 -453 254z" />
    <glyph glyph-name="Sacute" unicode="&#x15a;" horiz-adv-x="937" 
d="M273 900l389 80v-128l-389 -80v128zM21 244h220c0 -54 47 -83 243 -83c171 0 211 16 211 56c0 45 -31 51 -227 59c-310 12 -431 62 -431 223c0 154 154 211 423 211s425 -66 425 -242h-220c0 57 -68 71 -225 71c-149 0 -183 -12 -183 -51c0 -41 34 -46 211 -54
c276 -13 447 -30 447 -211c0 -190 -168 -233 -441 -233c-287 0 -453 49 -453 254z" />
    <glyph glyph-name="Scaron" unicode="&#x160;" horiz-adv-x="937" 
d="M674 854l-207 -80l-207 80v128l207 -80l207 80v-128zM468 434c276 -13 447 -30 447 -211c0 -190 -168 -233 -441 -233c-287 0 -453 49 -453 254h220c0 -54 47 -83 243 -83c171 0 211 16 211 56c0 45 -31 51 -227 59c-310 12 -431 62 -431 223c0 154 154 211 423 211
s425 -66 425 -242h-220c0 57 -68 71 -225 71c-149 0 -183 -12 -183 -51c0 -41 34 -46 211 -54z" />
    <glyph glyph-name="Scedilla" unicode="&#x15e;" horiz-adv-x="937" 
d="M915 223c0 -177 -146 -226 -387 -232l-14 -38c61 19 176 27 176 -69c0 -114 -162 -133 -316 -114v88c131 -19 182 0 182 35c0 24 -26 32 -104 14l-59 58l12 26c-244 8 -384 65 -384 253h220c0 -54 47 -83 243 -83c171 0 211 16 211 56c0 45 -31 51 -227 59
c-310 12 -431 62 -431 223c0 154 154 211 423 211s425 -66 425 -242h-220c0 57 -68 71 -225 71c-149 0 -183 -12 -183 -51c0 -41 34 -46 211 -54c276 -13 447 -30 447 -211z" />
    <glyph glyph-name="Scommaaccent" unicode="&#x218;" horiz-adv-x="937" 
d="M21 244h220c0 -54 47 -83 243 -83c171 0 211 16 211 56c0 45 -31 51 -227 59c-310 12 -431 62 -431 223c0 154 154 211 423 211s425 -66 425 -242h-220c0 57 -68 71 -225 71c-149 0 -183 -12 -183 -51c0 -41 34 -46 211 -54c276 -13 447 -30 447 -211
c0 -190 -168 -233 -441 -233c-287 0 -453 49 -453 254zM379 -109h178v-114l-92 -110h-86l63 110h-63v114z" />
    <glyph glyph-name="T" unicode="T" horiz-adv-x="903" 
d="M881 700v-186h-320v-514h-220v514h-320v186h860z" />
    <glyph glyph-name="Tbar" unicode="&#x166;" horiz-adv-x="903" 
d="M881 514h-320v-160h121v-128h-121v-226h-220v226h-139v128h139v160h-320v186h860v-186z" />
    <glyph glyph-name="Tcaron" unicode="&#x164;" horiz-adv-x="903" 
d="M657 854l-207 -80l-207 80v128l207 -80l207 80v-128zM881 700v-186h-320v-514h-220v514h-320v186h860z" />
    <glyph glyph-name="uni0162" unicode="&#x162;" horiz-adv-x="903" 
d="M561 0h-46l-18 -47c61 19 176 27 176 -69c0 -114 -162 -133 -316 -114v88c131 -19 182 0 182 35c0 24 -26 32 -104 14l-59 58l16 35h-51v514h-320v186h860v-186h-320v-514z" />
    <glyph glyph-name="uni021A" unicode="&#x21a;" horiz-adv-x="903" 
d="M881 700v-186h-320v-514h-220v514h-320v186h860zM362 -223v114h178v-114l-92 -110h-86l63 110h-63z" />
    <glyph glyph-name="U" unicode="U" horiz-adv-x="943" 
d="M911 351c0 -243 -133 -361 -440 -361c-308 0 -440 117 -440 361v349h220v-349c0 -86 27 -175 220 -175s220 90 220 175v349h220v-349z" />
    <glyph glyph-name="Uacute" unicode="&#xda;" horiz-adv-x="943" 
d="M276 900l389 80v-128l-389 -80v128zM911 351c0 -243 -133 -361 -440 -361c-308 0 -440 117 -440 361v349h220v-349c0 -86 27 -175 220 -175s220 90 220 175v349h220v-349z" />
    <glyph glyph-name="Ucircumflex" unicode="&#xdb;" horiz-adv-x="943" 
d="M678 772l-207 80l-207 -80v128l207 80l207 -80v-128zM691 700h220v-349c0 -243 -133 -361 -440 -361c-308 0 -440 117 -440 361v349h220v-349c0 -86 27 -175 220 -175s220 90 220 175v349z" />
    <glyph glyph-name="Udieresis" unicode="&#xdc;" horiz-adv-x="943" 
d="M246 947h189v-162h-189v162zM506 947h189v-162h-189v162zM911 351c0 -243 -133 -361 -440 -361c-308 0 -440 117 -440 361v349h220v-349c0 -86 27 -175 220 -175s220 90 220 175v349h220v-349z" />
    <glyph glyph-name="Ugrave" unicode="&#xd9;" horiz-adv-x="943" 
d="M666 900v-128l-389 80v128zM911 351c0 -243 -133 -361 -440 -361c-308 0 -440 117 -440 361v349h220v-349c0 -86 27 -175 220 -175s220 90 220 175v349h220v-349z" />
    <glyph glyph-name="Uhungarumlaut" unicode="&#x170;" horiz-adv-x="943" 
d="M234 912l207 80v-132l-207 -80v132zM501 912l207 80v-132l-207 -80v132zM911 351c0 -243 -133 -361 -440 -361c-308 0 -440 117 -440 361v349h220v-349c0 -86 27 -175 220 -175s220 90 220 175v349h220v-349z" />
    <glyph glyph-name="Umacron" unicode="&#x16a;" horiz-adv-x="943" 
d="M236 910h469v-128h-469v128zM911 351c0 -243 -133 -361 -440 -361c-308 0 -440 117 -440 361v349h220v-349c0 -86 27 -175 220 -175s220 90 220 175v349h220v-349z" />
    <glyph glyph-name="Uogonek" unicode="&#x172;" horiz-adv-x="943" 
d="M691 700h220v-349c0 -206 -96 -322 -312 -353c-21 -16 -42 -33 -42 -56c0 -43 70 -43 153 -43v-129c-187 0 -288 19 -288 117c0 40 21 73 63 103h-14c-308 0 -440 117 -440 361v349h220v-349c0 -86 27 -175 220 -175s220 90 220 175v349z" />
    <glyph glyph-name="Uring" unicode="&#x16e;" horiz-adv-x="943" 
d="M471 766c-162 0 -210 49 -210 132s48 132 210 132c163 0 210 -49 210 -132s-47 -132 -210 -132zM471 850c57 0 96 8 96 48s-39 48 -96 48c-56 0 -95 -8 -95 -48s39 -48 95 -48zM911 351c0 -243 -133 -361 -440 -361c-308 0 -440 117 -440 361v349h220v-349
c0 -86 27 -175 220 -175s220 90 220 175v349h220v-349z" />
    <glyph glyph-name="V" unicode="V" horiz-adv-x="1009" 
d="M743 700h244l-325 -700h-315l-326 700h244l239 -546z" />
    <glyph glyph-name="W" unicode="W" horiz-adv-x="1505" 
d="M1247 700h236l-252 -700h-318l-160 474l-161 -474h-318l-253 700h237l176 -527l186 527h265l186 -527z" />
    <glyph glyph-name="Wacute" unicode="&#x1e82;" horiz-adv-x="1505" 
d="M946 980v-128l-389 -80v128zM1247 700h236l-252 -700h-318l-160 474l-161 -474h-318l-253 700h237l176 -527l186 527h265l186 -527z" />
    <glyph glyph-name="Wcircumflex" unicode="&#x174;" horiz-adv-x="1505" 
d="M959 772l-207 80l-207 -80v128l207 80l207 -80v-128zM1247 700h236l-252 -700h-318l-160 474l-161 -474h-318l-253 700h237l176 -527l186 527h265l186 -527z" />
    <glyph glyph-name="Wdieresis" unicode="&#x1e84;" horiz-adv-x="1505" 
d="M716 947v-162h-189v162h189zM976 947v-162h-189v162h189zM1247 700h236l-252 -700h-318l-160 474l-161 -474h-318l-253 700h237l176 -527l186 527h265l186 -527z" />
    <glyph glyph-name="Wgrave" unicode="&#x1e80;" horiz-adv-x="1505" 
d="M947 900v-128l-389 80v128zM1247 700h236l-252 -700h-318l-160 474l-161 -474h-318l-253 700h237l176 -527l186 527h265l186 -527z" />
    <glyph glyph-name="X" unicode="X" horiz-adv-x="1075" 
d="M21 0l363 350l-363 350h295l221 -220l222 220h294l-362 -350l362 -350h-294l-222 220l-221 -220h-295z" />
    <glyph glyph-name="Y" unicode="Y" horiz-adv-x="1015" 
d="M397 230l-376 470h259l227 -290l228 290h258l-376 -470v-230h-220v230z" />
    <glyph glyph-name="Yacute" unicode="&#xdd;" horiz-adv-x="1015" 
d="M312 900l389 80v-128l-389 -80v128zM397 230l-376 470h259l227 -290l228 290h258l-376 -470v-230h-220v230z" />
    <glyph glyph-name="Ycircumflex" unicode="&#x176;" horiz-adv-x="1015" 
d="M714 772l-207 80l-207 -80v128l207 80l207 -80v-128zM735 700h258l-376 -470v-230h-220v230l-376 470h259l227 -290z" />
    <glyph glyph-name="Ydieresis" unicode="&#x178;" horiz-adv-x="1015" 
d="M282 947h189v-162h-189v162zM542 947h189v-162h-189v162zM397 230l-376 470h259l227 -290l228 290h258l-376 -470v-230h-220v230z" />
    <glyph glyph-name="Ygrave" unicode="&#x1ef2;" horiz-adv-x="1015" 
d="M702 900v-128l-389 80v128zM397 230l-376 470h259l227 -290l228 290h258l-376 -470v-230h-220v230z" />
    <glyph glyph-name="Z" unicode="Z" horiz-adv-x="853" 
d="M821 700v-186l-475 -328h475v-186h-790v186l476 328h-476v186h790z" />
    <glyph glyph-name="Zacute" unicode="&#x179;" horiz-adv-x="853" 
d="M620 980v-128l-389 -80v128zM821 700v-186l-475 -328h475v-186h-790v186l476 328h-476v186h790z" />
    <glyph glyph-name="Zcaron" unicode="&#x17d;" horiz-adv-x="853" 
d="M632 854l-207 -80l-207 80v128l207 -80l207 80v-128zM821 700v-186l-475 -328h475v-186h-790v186l476 328h-476v186h790z" />
    <glyph glyph-name="Zdotaccent" unicode="&#x17b;" horiz-adv-x="853" 
d="M535 947v-162h-218v162h218zM821 700v-186l-475 -328h475v-186h-790v186l476 328h-476v186h790z" />
    <glyph glyph-name="a" unicode="a" horiz-adv-x="851" 
d="M431 604c246 0 386 -81 388 -307v-297h-205v73c-99 -59 -209 -83 -330 -83c-151 0 -263 51 -263 182c0 155 175 200 355 200c93 0 171 -14 238 -37c0 92 -111 98 -191 98c-77 0 -167 -7 -283 -37l-70 147c120 39 245 61 361 61zM614 189v36c-50 15 -116 25 -205 25
c-120 0 -182 -15 -182 -65c0 -47 42 -52 118 -52c86 0 194 25 269 56z" />
    <glyph glyph-name="aacute" unicode="&#xe1;" horiz-adv-x="851" 
d="M632 874v-128l-389 -80v128zM431 604c246 0 386 -81 388 -307v-297h-205v73c-99 -59 -209 -83 -330 -83c-151 0 -263 51 -263 182c0 155 175 200 355 200c93 0 171 -14 238 -37c0 92 -111 98 -191 98c-77 0 -167 -7 -283 -37l-70 147c120 39 245 61 361 61zM614 189v36
c-50 15 -116 25 -205 25c-120 0 -182 -15 -182 -65c0 -47 42 -52 118 -52c86 0 194 25 269 56z" />
    <glyph glyph-name="abreve" unicode="&#x103;" horiz-adv-x="851" 
d="M438 653c-124 0 -227 40 -227 217h115c0 -76 38 -106 112 -106s113 30 113 106h114c0 -177 -103 -217 -227 -217zM431 604c246 0 386 -81 388 -307v-297h-205v73c-99 -59 -209 -83 -330 -83c-151 0 -263 51 -263 182c0 155 175 200 355 200c93 0 171 -14 238 -37
c0 92 -111 98 -191 98c-77 0 -167 -7 -283 -37l-70 147c120 39 245 61 361 61zM614 189v36c-50 15 -116 25 -205 25c-120 0 -182 -15 -182 -65c0 -47 42 -52 118 -52c86 0 194 25 269 56z" />
    <glyph glyph-name="acircumflex" unicode="&#xe2;" horiz-adv-x="851" 
d="M645 666l-207 80l-207 -80v128l207 80l207 -80v-128zM431 604c246 0 386 -81 388 -307v-297h-205v73c-99 -59 -209 -83 -330 -83c-151 0 -263 51 -263 182c0 155 175 200 355 200c93 0 171 -14 238 -37c0 92 -111 98 -191 98c-77 0 -167 -7 -283 -37l-70 147
c120 39 245 61 361 61zM614 189v36c-50 15 -116 25 -205 25c-120 0 -182 -15 -182 -65c0 -47 42 -52 118 -52c86 0 194 25 269 56z" />
    <glyph glyph-name="adieresis" unicode="&#xe4;" horiz-adv-x="851" 
d="M402 841v-162h-189v162h189zM662 841v-162h-189v162h189zM431 604c246 0 386 -81 388 -307v-297h-205v73c-99 -59 -209 -83 -330 -83c-151 0 -263 51 -263 182c0 155 175 200 355 200c93 0 171 -14 238 -37c0 92 -111 98 -191 98c-77 0 -167 -7 -283 -37l-70 147
c120 39 245 61 361 61zM614 189v36c-50 15 -116 25 -205 25c-120 0 -182 -15 -182 -65c0 -47 42 -52 118 -52c86 0 194 25 269 56z" />
    <glyph glyph-name="agrave" unicode="&#xe0;" horiz-adv-x="851" 
d="M633 794v-128l-389 80v128zM431 604c246 0 386 -81 388 -307v-297h-205v73c-99 -59 -209 -83 -330 -83c-151 0 -263 51 -263 182c0 155 175 200 355 200c93 0 171 -14 238 -37c0 92 -111 98 -191 98c-77 0 -167 -7 -283 -37l-70 147c120 39 245 61 361 61zM614 189v36
c-50 15 -116 25 -205 25c-120 0 -182 -15 -182 -65c0 -47 42 -52 118 -52c86 0 194 25 269 56z" />
    <glyph glyph-name="amacron" unicode="&#x101;" horiz-adv-x="851" 
d="M672 804v-128h-469v128h469zM431 604c246 0 386 -81 388 -307v-297h-205v73c-99 -59 -209 -83 -330 -83c-151 0 -263 51 -263 182c0 155 175 200 355 200c93 0 171 -14 238 -37c0 92 -111 98 -191 98c-77 0 -167 -7 -283 -37l-70 147c120 39 245 61 361 61zM614 189v36
c-50 15 -116 25 -205 25c-120 0 -182 -15 -182 -65c0 -47 42 -52 118 -52c86 0 194 25 269 56z" />
    <glyph glyph-name="aogonek" unicode="&#x105;" horiz-adv-x="851" 
d="M695 -58c0 -43 70 -43 153 -43v-129c-187 0 -288 19 -288 117c0 44 26 80 77 113h-23v73c-99 -59 -209 -83 -330 -83c-151 0 -263 51 -263 182c0 155 175 200 355 200c93 0 171 -14 238 -37c0 92 -111 98 -191 98c-77 0 -167 -7 -283 -37l-70 147c120 39 245 61 361 61
c246 0 386 -81 388 -307v-297h-80c-21 -17 -44 -34 -44 -58zM614 189v36c-50 15 -116 25 -205 25c-120 0 -182 -15 -182 -65c0 -47 42 -52 118 -52c86 0 194 25 269 56z" />
    <glyph glyph-name="aring" unicode="&#xe5;" horiz-adv-x="851" 
d="M438 660c-162 0 -210 49 -210 132s48 132 210 132c163 0 210 -49 210 -132s-47 -132 -210 -132zM438 840c-56 0 -95 -8 -95 -48s39 -48 95 -48c57 0 96 8 96 48s-39 48 -96 48zM431 604c246 0 386 -81 388 -307v-297h-205v73c-99 -59 -209 -83 -330 -83
c-151 0 -263 51 -263 182c0 155 175 200 355 200c93 0 171 -14 238 -37c0 92 -111 98 -191 98c-77 0 -167 -7 -283 -37l-70 147c120 39 245 61 361 61zM614 189v36c-50 15 -116 25 -205 25c-120 0 -182 -15 -182 -65c0 -47 42 -52 118 -52c86 0 194 25 269 56z" />
    <glyph glyph-name="atilde" unicode="&#xe3;" horiz-adv-x="851" 
d="M364 744c-40 0 -53 -25 -53 -74h-163c0 106 39 210 149 210c109 0 134 -84 216 -84c40 0 53 25 53 74h162c0 -106 -38 -210 -148 -210c-109 0 -134 84 -216 84zM431 604c246 0 386 -81 388 -307v-297h-205v73c-99 -59 -209 -83 -330 -83c-151 0 -263 51 -263 182
c0 155 175 200 355 200c93 0 171 -14 238 -37c0 92 -111 98 -191 98c-77 0 -167 -7 -283 -37l-70 147c120 39 245 61 361 61zM614 189v36c-50 15 -116 25 -205 25c-120 0 -182 -15 -182 -65c0 -47 42 -52 118 -52c86 0 194 25 269 56z" />
    <glyph glyph-name="ae" unicode="&#xe6;" horiz-adv-x="1468" 
d="M1031 154c103 0 157 15 202 64h203c-34 -154 -172 -228 -405 -228c-138 0 -254 32 -325 105c-99 -71 -250 -105 -400 -105c-170 0 -285 51 -285 182c0 158 175 200 355 200c93 0 171 -14 238 -37c0 92 -111 98 -191 98c-77 0 -167 -7 -283 -37l-70 147
c120 39 245 61 361 61c133 0 236 -24 302 -81c72 56 179 81 308 81c236 0 405 -82 405 -347h-603c20 -80 99 -103 188 -103zM1041 454c-90 0 -162 -14 -190 -83h377c-29 69 -102 83 -187 83zM614 195v30c-50 15 -116 25 -205 25c-120 0 -182 -11 -182 -63
c0 -47 42 -54 118 -54c92 0 194 22 269 62z" />
    <glyph glyph-name="b" unicode="b" horiz-adv-x="869" 
d="M508 604c172 0 339 -73 339 -307c0 -233 -167 -307 -339 -307c-110 0 -208 31 -271 97v-87h-206v800h206v-292c63 65 161 96 271 96zM439 161c130 0 203 34 203 136s-73 136 -203 136c-129 0 -202 -34 -202 -136s73 -136 202 -136z" />
    <glyph glyph-name="c" unicode="c" horiz-adv-x="855" 
d="M21 297c0 219 159 307 408 307c229 0 381 -74 405 -255h-210c-21 64 -90 84 -195 84c-127 0 -202 -31 -202 -136s75 -136 202 -136c105 0 174 20 195 84h210c-24 -181 -176 -255 -405 -255c-249 0 -408 88 -408 307z" />
    <glyph glyph-name="cacute" unicode="&#x107;" horiz-adv-x="855" 
d="M234 794l389 80v-128l-389 -80v128zM21 297c0 219 159 307 408 307c229 0 381 -74 405 -255h-210c-21 64 -90 84 -195 84c-127 0 -202 -31 -202 -136s75 -136 202 -136c105 0 174 20 195 84h210c-24 -181 -176 -255 -405 -255c-249 0 -408 88 -408 307z" />
    <glyph glyph-name="ccaron" unicode="&#x10d;" horiz-adv-x="855" 
d="M635 748l-207 -80l-207 80v128l207 -80l207 80v-128zM429 161c105 0 174 20 195 84h210c-24 -181 -176 -255 -405 -255c-249 0 -408 88 -408 307s159 307 408 307c229 0 381 -74 405 -255h-210c-21 64 -90 84 -195 84c-127 0 -202 -31 -202 -136s75 -136 202 -136z" />
    <glyph glyph-name="ccedilla" unicode="&#xe7;" horiz-adv-x="855" 
d="M429 161c105 0 174 20 195 84h210c-22 -164 -149 -241 -344 -253l-15 -39c61 19 176 27 176 -69c0 -114 -162 -133 -316 -114v88c131 -19 182 0 182 35c0 24 -26 32 -104 14l-59 58l12 27c-212 14 -345 105 -345 305c0 219 159 307 408 307c229 0 381 -74 405 -255h-210
c-21 64 -90 84 -195 84c-127 0 -202 -31 -202 -136s75 -136 202 -136z" />
    <glyph glyph-name="cdotaccent" unicode="&#x10b;" horiz-adv-x="855" 
d="M320 841h218v-162h-218v162zM21 297c0 219 159 307 408 307c229 0 381 -74 405 -255h-210c-21 64 -90 84 -195 84c-127 0 -202 -31 -202 -136s75 -136 202 -136c105 0 174 20 195 84h210c-24 -181 -176 -255 -405 -255c-249 0 -408 88 -408 307z" />
    <glyph glyph-name="d" unicode="d" horiz-adv-x="869" 
d="M632 800h206v-800h-206v87c-63 -66 -161 -97 -271 -97c-172 0 -339 74 -339 307c0 234 167 307 339 307c110 0 208 -31 271 -96v292zM430 161c129 0 202 34 202 136s-73 136 -202 136c-130 0 -203 -34 -203 -136s73 -136 203 -136z" />
    <glyph glyph-name="eth" unicode="&#xf0;" horiz-adv-x="926" 
d="M713 771c111 -93 181 -223 181 -385c0 -289 -232 -396 -471 -396s-392 80 -392 288c0 168 97 282 330 282c139 0 245 -55 325 -123c-14 110 -75 190 -164 244l-212 -101l-83 98l139 66c-45 11 -92 18 -141 22l26 174c123 -7 240 -37 340 -89l183 87l83 -98zM418 161
c108 0 194 32 239 101c-84 94 -191 127 -267 127c-94 0 -153 -27 -153 -111c0 -78 52 -117 181 -117z" />
    <glyph glyph-name="dcaron" unicode="&#x10f;" horiz-adv-x="1125" 
d="M632 508v292h206v-800h-206v87c-63 -66 -161 -97 -271 -97c-172 0 -339 74 -339 307c0 234 167 307 339 307c110 0 208 -31 271 -96zM887 800h206v-157l-97 -209h-94l59 209h-74v157zM430 161c129 0 202 34 202 136s-73 136 -202 136c-130 0 -203 -34 -203 -136
s73 -136 203 -136z" />
    <glyph glyph-name="dcroat" unicode="&#x111;" horiz-adv-x="919" 
d="M887 754v-128h-49v-626h-206v87c-63 -66 -161 -97 -271 -97c-172 0 -339 74 -339 307c0 234 167 307 339 307c110 0 208 -31 271 -96v118h-225v128h225v46h206v-46h49zM430 161c129 0 202 34 202 136s-73 136 -202 136c-130 0 -203 -34 -203 -136s73 -136 203 -136z" />
    <glyph glyph-name="e" unicode="e" horiz-adv-x="855" 
d="M419 154c103 0 157 15 202 64h203c-34 -154 -172 -228 -405 -228c-229 0 -398 88 -398 307s166 307 408 307c236 0 405 -82 405 -347h-603c20 -80 99 -103 188 -103zM429 454c-90 0 -162 -14 -190 -83h377c-29 69 -102 83 -187 83z" />
    <glyph glyph-name="eacute" unicode="&#xe9;" horiz-adv-x="855" 
d="M623 874v-128l-389 -80v128zM419 154c103 0 157 15 202 64h203c-34 -154 -172 -228 -405 -228c-229 0 -398 88 -398 307s166 307 408 307c236 0 405 -82 405 -347h-603c20 -80 99 -103 188 -103zM429 454c-90 0 -162 -14 -190 -83h377c-29 69 -102 83 -187 83z" />
    <glyph glyph-name="ecaron" unicode="&#x11b;" horiz-adv-x="855" 
d="M635 748l-207 -80l-207 80v128l207 -80l207 80v-128zM419 154c103 0 157 15 202 64h203c-34 -154 -172 -228 -405 -228c-229 0 -398 88 -398 307s166 307 408 307c236 0 405 -82 405 -347h-603c20 -80 99 -103 188 -103zM429 454c-90 0 -162 -14 -190 -83h377
c-29 69 -102 83 -187 83z" />
    <glyph glyph-name="ecircumflex" unicode="&#xea;" horiz-adv-x="855" 
d="M636 666l-207 80l-207 -80v128l207 80l207 -80v-128zM419 154c103 0 157 15 202 64h203c-34 -154 -172 -228 -405 -228c-229 0 -398 88 -398 307s166 307 408 307c236 0 405 -82 405 -347h-603c20 -80 99 -103 188 -103zM429 454c-90 0 -162 -14 -190 -83h377
c-29 69 -102 83 -187 83z" />
    <glyph glyph-name="edieresis" unicode="&#xeb;" horiz-adv-x="855" 
d="M393 841v-162h-189v162h189zM653 841v-162h-189v162h189zM419 154c103 0 157 15 202 64h203c-34 -154 -172 -228 -405 -228c-229 0 -398 88 -398 307s166 307 408 307c236 0 405 -82 405 -347h-603c20 -80 99 -103 188 -103zM429 454c-90 0 -162 -14 -190 -83h377
c-29 69 -102 83 -187 83z" />
    <glyph glyph-name="edotaccent" unicode="&#x117;" horiz-adv-x="855" 
d="M538 841v-162h-218v162h218zM419 154c103 0 157 15 202 64h203c-34 -154 -172 -228 -405 -228c-229 0 -398 88 -398 307s166 307 408 307c236 0 405 -82 405 -347h-603c20 -80 99 -103 188 -103zM429 454c-90 0 -162 -14 -190 -83h377c-29 69 -102 83 -187 83z" />
    <glyph glyph-name="egrave" unicode="&#xe8;" horiz-adv-x="855" 
d="M624 794v-128l-389 80v128zM419 154c103 0 157 15 202 64h203c-34 -154 -172 -228 -405 -228c-229 0 -398 88 -398 307s166 307 408 307c236 0 405 -82 405 -347h-603c20 -80 99 -103 188 -103zM429 454c-90 0 -162 -14 -190 -83h377c-29 69 -102 83 -187 83z" />
    <glyph glyph-name="emacron" unicode="&#x113;" horiz-adv-x="855" 
d="M663 804v-128h-469v128h469zM419 154c103 0 157 15 202 64h203c-34 -154 -172 -228 -405 -228c-229 0 -398 88 -398 307s166 307 408 307c236 0 405 -82 405 -347h-603c20 -80 99 -103 188 -103zM429 454c-90 0 -162 -14 -190 -83h377c-29 69 -102 83 -187 83z" />
    <glyph glyph-name="eogonek" unicode="&#x119;" horiz-adv-x="855" 
d="M419 154c103 0 157 15 202 64h203c-27 -122 -120 -194 -274 -219c-21 -16 -43 -33 -43 -57c0 -43 70 -43 153 -43v-129c-187 0 -288 19 -288 117c0 40 21 73 63 103h-16c-229 0 -398 88 -398 307s166 307 408 307c236 0 405 -82 405 -347h-603c20 -80 99 -103 188 -103z
M429 454c-90 0 -162 -14 -190 -83h377c-29 69 -102 83 -187 83z" />
    <glyph glyph-name="f" unicode="f" horiz-adv-x="619" 
d="M474 669c-78 0 -104 -19 -108 -75h231v-171h-232v-423h-205v423h-139v171h139v39c0 120 72 177 260 177c59 0 90 0 177 -10v-136c-39 3 -79 5 -123 5z" />
    <glyph glyph-name="g" unicode="g" horiz-adv-x="869" 
d="M632 594h205v-508c0 -240 -166 -336 -380 -336c-171 0 -316 32 -373 47v166c69 -13 201 -42 331 -42c148 0 213 49 217 201c-56 -65 -148 -103 -278 -103c-194 0 -333 88 -333 292c0 205 139 293 333 293c130 0 223 -38 278 -103v93zM429 190c145 0 203 33 203 121
s-58 122 -203 122c-144 0 -202 -34 -202 -122s58 -121 202 -121z" />
    <glyph glyph-name="gbreve" unicode="&#x11f;" horiz-adv-x="869" 
d="M429 653c-124 0 -227 40 -227 217h115c0 -76 38 -106 112 -106s113 30 113 106h114c0 -177 -103 -217 -227 -217zM632 594h205v-508c0 -240 -166 -336 -380 -336c-171 0 -316 32 -373 47v166c69 -13 201 -42 331 -42c148 0 213 49 217 201c-56 -65 -148 -103 -278 -103
c-194 0 -333 88 -333 292c0 205 139 293 333 293c130 0 223 -38 278 -103v93zM429 190c145 0 203 33 203 121s-58 122 -203 122c-144 0 -202 -34 -202 -122s58 -121 202 -121z" />
    <glyph glyph-name="gcommaaccent" unicode="&#x123;" horiz-adv-x="869" 
d="M518 817v-114h-178v114l92 110h86l-63 -110h63zM632 594h205v-508c0 -240 -166 -336 -380 -336c-171 0 -316 32 -373 47v166c69 -13 201 -42 331 -42c148 0 213 49 217 201c-56 -65 -148 -103 -278 -103c-194 0 -333 88 -333 292c0 205 139 293 333 293
c130 0 223 -38 278 -103v93zM429 190c145 0 203 33 203 121s-58 122 -203 122c-144 0 -202 -34 -202 -122s58 -121 202 -121z" />
    <glyph glyph-name="gdotaccent" unicode="&#x121;" horiz-adv-x="869" 
d="M538 841v-162h-218v162h218zM632 594h205v-508c0 -240 -166 -336 -380 -336c-171 0 -316 32 -373 47v166c69 -13 201 -42 331 -42c148 0 213 49 217 201c-56 -65 -148 -103 -278 -103c-194 0 -333 88 -333 292c0 205 139 293 333 293c130 0 223 -38 278 -103v93zM429 190
c145 0 203 33 203 121s-58 122 -203 122c-144 0 -202 -34 -202 -122s58 -121 202 -121z" />
    <glyph glyph-name="h" unicode="h" horiz-adv-x="882" 
d="M553 604c146 0 296 -49 297 -266l-1 -338h-205v257c0 114 -40 169 -165 169c-93 0 -192 -46 -242 -99v-327h-206v800h206v-297c78 58 182 101 316 101z" />
    <glyph glyph-name="hbar" unicode="&#x127;" horiz-adv-x="930" 
d="M602 604c146 0 296 -49 297 -266l-1 -338h-205v257c0 114 -40 169 -165 169c-93 0 -192 -46 -242 -99v-327h-206v629h-49v128h49v43h206v-43h225v-128h-225v-126c78 58 182 101 316 101z" />
    <glyph glyph-name="i" unicode="i" 
d="M31 800h206v-154h-206v154zM31 594h206v-594h-206v594z" />
    <glyph glyph-name="dotlessi" unicode="&#x131;" 
d="M31 594h206v-594h-206v594z" />
    <glyph glyph-name="iacute" unicode="&#xed;" 
d="M-61 794l389 80v-128l-389 -80v128zM31 594h206v-594h-206v594z" />
    <glyph glyph-name="icircumflex" unicode="&#xee;" 
d="M134 874l207 -80v-128l-207 80l-207 -80v128zM31 0v594h206v-594h-206z" />
    <glyph glyph-name="idieresis" unicode="&#xef;" 
d="M-91 841h189v-162h-189v162zM169 841h189v-162h-189v162zM31 594h206v-594h-206v594z" />
    <glyph glyph-name="i.loclTRK" 
d="M25 841h218v-162h-218v162zM31 594h206v-594h-206v594z" />
    <glyph glyph-name="igrave" unicode="&#xec;" 
d="M329 794v-128l-389 80v128zM31 594h206v-594h-206v594z" />
    <glyph glyph-name="imacron" unicode="&#x12b;" 
d="M-101 804h469v-128h-469v128zM31 594h206v-594h-206v594z" />
    <glyph glyph-name="iogonek" unicode="&#x12f;" 
d="M243 841v-162h-218v162h218zM159 -58c0 -43 70 -43 153 -43v-129c-187 0 -288 19 -288 117c0 44 26 80 77 113h-70v594h206v-594h-34c-21 -17 -44 -34 -44 -58z" />
    <glyph glyph-name="j" unicode="j" horiz-adv-x="461" 
d="M224 800h205v-154h-205v154zM429 594v-567c0 -180 -67 -277 -261 -277c-59 0 -120 5 -177 15v166c49 -6 79 -10 123 -10c88 0 110 19 110 115v558h205z" />
    <glyph glyph-name="k" unicode="k" horiz-adv-x="945" 
d="M923 594l-354 -245l354 -349h-274l-241 241l-171 -111v-130h-206v800h206v-445l356 239h330z" />
    <glyph glyph-name="kcommaaccent" unicode="&#x137;" horiz-adv-x="945" 
d="M923 594l-354 -245l354 -349h-274l-241 241l-171 -111v-130h-206v800h206v-445l356 239h330zM338 -223v114h178v-114l-92 -110h-86l63 110h-63z" />
    <glyph glyph-name="l" unicode="l" 
d="M31 800h206v-800h-206v800z" />
    <glyph glyph-name="lacute" unicode="&#x13a;" 
d="M-61 1000l389 80v-128l-389 -80v128zM31 800h206v-800h-206v800z" />
    <glyph glyph-name="lcaron" unicode="&#x13e;" 
d="M133 1002l207 80v-128l-207 -80l-207 80v128zM31 0v800h206v-800h-206z" />
    <glyph glyph-name="lcommaaccent" unicode="&#x13c;" 
d="M31 800h206v-800h-206v800zM45 -109h178v-114l-92 -110h-86l63 110h-63v114z" />
    <glyph glyph-name="lslash" unicode="&#x142;" horiz-adv-x="585" 
d="M553 611v-152l-164 -58v-401h-206v327l-152 -54v152l152 54v321h206v-247z" />
    <glyph glyph-name="m" unicode="m" horiz-adv-x="1339" 
d="M1056 604c119 0 251 -49 251 -258v-346h-206v257c0 114 -24 169 -129 169c-76 0 -147 -35 -196 -84l-1 -342h-206v257c0 114 -23 169 -128 169c-80 0 -154 -39 -204 -91v-335h-206v594h206v-98c59 51 142 108 288 108c83 0 172 -24 218 -109c69 59 168 109 313 109z" />
    <glyph glyph-name="n" unicode="n" horiz-adv-x="882" 
d="M553 604c146 0 296 -49 297 -266l-1 -338h-205v257c0 114 -40 169 -165 169c-93 0 -192 -46 -242 -99v-327h-206v594h206v-91c78 58 182 101 316 101z" />
    <glyph glyph-name="nacute" unicode="&#x144;" horiz-adv-x="882" 
d="M674 874v-128l-389 -80v128zM553 604c146 0 296 -49 297 -266l-1 -338h-205v257c0 114 -40 169 -165 169c-93 0 -192 -46 -242 -99v-327h-206v594h206v-91c78 58 182 101 316 101z" />
    <glyph glyph-name="ncaron" unicode="&#x148;" horiz-adv-x="882" 
d="M686 748l-207 -80l-207 80v128l207 -80l207 80v-128zM553 604c146 0 296 -49 297 -266l-1 -338h-205v257c0 114 -40 169 -165 169c-93 0 -192 -46 -242 -99v-327h-206v594h206v-91c78 58 182 101 316 101z" />
    <glyph glyph-name="ncommaaccent" unicode="&#x146;" horiz-adv-x="882" 
d="M553 604c146 0 296 -49 297 -266l-1 -338h-205v257c0 114 -40 169 -165 169c-93 0 -192 -46 -242 -99v-327h-206v594h206v-91c78 58 182 101 316 101zM351 -223v114h178v-114l-92 -110h-86l63 110h-63z" />
    <glyph glyph-name="eng" unicode="&#x14b;" horiz-adv-x="882" 
d="M553 604c146 0 296 -49 297 -266l-1 -338c0 -173 -82 -264 -278 -264c-59 0 -120 5 -177 15v163c49 -6 79 -10 113 -10c100 0 137 19 137 96v257c0 114 -40 169 -165 169c-93 0 -192 -46 -242 -99v-327h-206v594h206v-91c78 58 182 101 316 101z" />
    <glyph glyph-name="ntilde" unicode="&#xf1;" horiz-adv-x="882" 
d="M406 744c-40 0 -53 -25 -53 -74h-163c0 106 39 210 149 210c109 0 134 -84 216 -84c40 0 53 25 53 74h162c0 -106 -38 -210 -148 -210c-109 0 -134 84 -216 84zM553 604c146 0 296 -49 297 -266l-1 -338h-205v257c0 114 -40 169 -165 169c-93 0 -192 -46 -242 -99v-327
h-206v594h206v-91c78 58 182 101 316 101z" />
    <glyph glyph-name="o" unicode="o" horiz-adv-x="859" 
d="M429 -10c-249 0 -408 88 -408 307s159 307 408 307c250 0 408 -88 408 -307s-158 -307 -408 -307zM429 161c133 0 203 31 203 136s-70 136 -203 136c-132 0 -202 -31 -202 -136s70 -136 202 -136z" />
    <glyph glyph-name="oacute" unicode="&#xf3;" horiz-adv-x="859" 
d="M234 794l389 80v-128l-389 -80v128zM429 -10c-249 0 -408 88 -408 307s159 307 408 307c250 0 408 -88 408 -307s-158 -307 -408 -307zM429 161c133 0 203 31 203 136s-70 136 -203 136c-132 0 -202 -31 -202 -136s70 -136 202 -136z" />
    <glyph glyph-name="ocircumflex" unicode="&#xf4;" horiz-adv-x="859" 
d="M636 666l-207 80l-207 -80v128l207 80l207 -80v-128zM429 604c250 0 408 -88 408 -307s-158 -307 -408 -307c-249 0 -408 88 -408 307s159 307 408 307zM429 161c133 0 203 31 203 136s-70 136 -203 136c-132 0 -202 -31 -202 -136s70 -136 202 -136z" />
    <glyph glyph-name="odieresis" unicode="&#xf6;" horiz-adv-x="859" 
d="M204 841h189v-162h-189v162zM464 841h189v-162h-189v162zM429 -10c-249 0 -408 88 -408 307s159 307 408 307c250 0 408 -88 408 -307s-158 -307 -408 -307zM429 161c133 0 203 31 203 136s-70 136 -203 136c-132 0 -202 -31 -202 -136s70 -136 202 -136z" />
    <glyph glyph-name="ograve" unicode="&#xf2;" horiz-adv-x="859" 
d="M624 794v-128l-389 80v128zM429 -10c-249 0 -408 88 -408 307s159 307 408 307c250 0 408 -88 408 -307s-158 -307 -408 -307zM429 161c133 0 203 31 203 136s-70 136 -203 136c-132 0 -202 -31 -202 -136s70 -136 202 -136z" />
    <glyph glyph-name="ohungarumlaut" unicode="&#x151;" horiz-adv-x="859" 
d="M192 806l207 80v-132l-207 -80v132zM459 806l207 80v-132l-207 -80v132zM429 -10c-249 0 -408 88 -408 307s159 307 408 307c250 0 408 -88 408 -307s-158 -307 -408 -307zM429 161c133 0 203 31 203 136s-70 136 -203 136c-132 0 -202 -31 -202 -136s70 -136 202 -136z
" />
    <glyph glyph-name="omacron" unicode="&#x14d;" horiz-adv-x="859" 
d="M194 804h469v-128h-469v128zM429 -10c-249 0 -408 88 -408 307s159 307 408 307c250 0 408 -88 408 -307s-158 -307 -408 -307zM429 161c133 0 203 31 203 136s-70 136 -203 136c-132 0 -202 -31 -202 -136s70 -136 202 -136z" />
    <glyph glyph-name="oslash" unicode="&#xf8;" horiz-adv-x="859" 
d="M595 588c152 -35 242 -126 242 -291c0 -219 -158 -307 -408 -307h-13l-38 -128h-158l43 144c-151 35 -242 126 -242 291c0 219 159 307 408 307h13l38 128h158zM227 297c0 -68 30 -105 86 -123l77 258c-107 -6 -163 -41 -163 -135zM468 162c108 6 164 41 164 135
c0 68 -30 105 -87 123z" />
    <glyph glyph-name="otilde" unicode="&#xf5;" horiz-adv-x="859" 
d="M139 670c0 106 39 210 149 210c109 0 134 -84 216 -84c40 0 53 25 53 74h162c0 -106 -38 -210 -148 -210c-109 0 -134 84 -216 84c-40 0 -53 -25 -53 -74h-163zM429 -10c-249 0 -408 88 -408 307s159 307 408 307c250 0 408 -88 408 -307s-158 -307 -408 -307zM429 161
c133 0 203 31 203 136s-70 136 -203 136c-132 0 -202 -31 -202 -136s70 -136 202 -136z" />
    <glyph glyph-name="oe" unicode="&#x153;" horiz-adv-x="1501" 
d="M1065 154c103 0 157 15 202 64h203c-34 -154 -172 -228 -405 -228c-130 0 -240 28 -312 93c-70 -65 -182 -93 -324 -93c-249 0 -408 88 -408 307s159 307 408 307c142 0 254 -28 324 -93c72 65 185 93 322 93c236 0 405 -82 405 -347h-603c20 -80 99 -103 188 -103z
M1075 454c-90 0 -162 -14 -190 -83h377c-29 69 -102 83 -187 83zM429 161c133 0 203 31 203 136s-70 136 -203 136c-132 0 -202 -31 -202 -136s70 -136 202 -136z" />
    <glyph glyph-name="p" unicode="p" horiz-adv-x="869" 
d="M508 604c172 0 340 -73 340 -307c0 -233 -168 -307 -340 -307c-110 0 -207 31 -271 97v-337h-205v844h205v-87c64 66 161 97 271 97zM440 161c129 0 202 34 202 136s-73 136 -202 136c-130 0 -203 -34 -203 -136s73 -136 203 -136z" />
    <glyph glyph-name="thorn" unicode="&#xfe;" horiz-adv-x="876" 
d="M519 604c171 0 328 -68 328 -307s-157 -307 -328 -307c-121 0 -221 36 -282 107v-268h-206v971h206v-303c61 71 161 107 282 107zM439 161c136 0 203 37 203 136c0 100 -67 136 -203 136c-135 0 -202 -36 -202 -136c0 -99 67 -136 202 -136z" />
    <glyph glyph-name="q" unicode="q" horiz-adv-x="869" 
d="M632 594h205v-844h-205v337c-64 -66 -161 -97 -271 -97c-172 0 -340 74 -340 307c0 234 168 307 340 307c110 0 207 -31 271 -97v87zM429 161c130 0 203 34 203 136s-73 136 -203 136c-129 0 -202 -34 -202 -136s73 -136 202 -136z" />
    <glyph glyph-name="r" unicode="r" horiz-adv-x="685" 
d="M504 604c70 0 119 -10 159 -20v-171c-56 14 -101 20 -147 20c-91 0 -193 -16 -279 -95v-338h-206v594h206v-100c70 79 164 110 267 110z" />
    <glyph glyph-name="racute" unicode="&#x155;" horiz-adv-x="685" 
d="M541 874v-128l-389 -80v128zM504 604c70 0 119 -10 159 -20v-171c-56 14 -101 20 -147 20c-91 0 -193 -16 -279 -95v-338h-206v594h206v-100c70 79 164 110 267 110z" />
    <glyph glyph-name="rcaron" unicode="&#x159;" horiz-adv-x="685" 
d="M553 748l-207 -80l-207 80v128l207 -80l207 80v-128zM504 604c70 0 119 -10 159 -20v-171c-56 14 -101 20 -147 20c-91 0 -193 -16 -279 -95v-338h-206v594h206v-100c70 79 164 110 267 110z" />
    <glyph glyph-name="rcommaaccent" unicode="&#x157;" horiz-adv-x="685" 
d="M504 604c70 0 119 -10 159 -20v-171c-56 14 -101 20 -147 20c-91 0 -193 -16 -279 -95v-338h-206v594h206v-100c70 79 164 110 267 110zM45 -223v114h178v-114l-92 -110h-86l63 110h-63z" />
    <glyph glyph-name="s" unicode="s" horiz-adv-x="857" 
d="M21 207h206c0 -48 49 -67 217 -67c159 0 186 9 186 45c0 37 -26 37 -202 47c-267 13 -391 34 -391 181c0 162 182 191 399 191c222 0 379 -29 379 -196h-205c0 41 -52 46 -184 46c-142 0 -183 -5 -183 -34c0 -31 28 -33 205 -45c234 -14 387 -25 387 -182
c0 -174 -154 -203 -381 -203s-433 29 -433 217z" />
    <glyph glyph-name="sacute" unicode="&#x15b;" horiz-adv-x="857" 
d="M233 794l389 80v-128l-389 -80v128zM21 207h206c0 -48 49 -67 217 -67c159 0 186 9 186 45c0 37 -26 37 -202 47c-267 13 -391 34 -391 181c0 162 182 191 399 191c222 0 379 -29 379 -196h-205c0 41 -52 46 -184 46c-142 0 -183 -5 -183 -34c0 -31 28 -33 205 -45
c234 -14 387 -25 387 -182c0 -174 -154 -203 -381 -203s-433 29 -433 217z" />
    <glyph glyph-name="scaron" unicode="&#x161;" horiz-adv-x="857" 
d="M634 748l-207 -80l-207 80v128l207 -80l207 80v-128zM448 375c234 -14 387 -25 387 -182c0 -174 -154 -203 -381 -203s-433 29 -433 217h206c0 -48 49 -67 217 -67c159 0 186 9 186 45c0 37 -26 37 -202 47c-267 13 -391 34 -391 181c0 162 182 191 399 191
c222 0 379 -29 379 -196h-205c0 41 -52 46 -184 46c-142 0 -183 -5 -183 -34c0 -31 28 -33 205 -45z" />
    <glyph glyph-name="scedilla" unicode="&#x15f;" horiz-adv-x="857" 
d="M835 193c0 -165 -139 -200 -347 -203l-14 -37c61 19 176 27 176 -69c0 -114 -162 -133 -316 -114v88c131 -19 182 0 182 35c0 24 -26 32 -104 14l-59 58l12 27c-189 8 -344 52 -344 215h206c0 -48 49 -67 217 -67c159 0 186 9 186 45c0 37 -26 37 -202 47
c-267 13 -391 34 -391 181c0 162 182 191 399 191c222 0 379 -29 379 -196h-205c0 41 -52 46 -184 46c-142 0 -183 -5 -183 -34c0 -31 28 -33 205 -45c234 -14 387 -25 387 -182z" />
    <glyph glyph-name="scommaaccent" unicode="&#x219;" horiz-adv-x="857" 
d="M21 207h206c0 -48 49 -67 217 -67c159 0 186 9 186 45c0 37 -26 37 -202 47c-267 13 -391 34 -391 181c0 162 182 191 399 191c222 0 379 -29 379 -196h-205c0 41 -52 46 -184 46c-142 0 -183 -5 -183 -34c0 -31 28 -33 205 -45c234 -14 387 -25 387 -182
c0 -174 -154 -203 -381 -203s-433 29 -433 217zM339 -109h178v-114l-92 -110h-86l63 110h-63v114z" />
    <glyph glyph-name="germandbls" unicode="&#xdf;" horiz-adv-x="847" 
d="M657 395c103 -24 168 -77 168 -195c0 -186 -149 -200 -477 -200v171c230 0 272 9 272 65c0 55 -42 64 -272 64v114c122 0 162 7 162 63c0 46 -44 62 -112 62c-91 0 -161 -12 -161 -110v-429h-206v429c0 229 132 281 375 281c186 0 309 -46 309 -190
c0 -51 -22 -93 -58 -125z" />
    <glyph glyph-name="t" unicode="t" horiz-adv-x="649" 
d="M627 423h-262v-147c0 -86 22 -115 109 -115c54 0 84 0 153 10v-166c-57 -10 -125 -15 -204 -15c-169 0 -263 57 -263 187v246h-139v171h139v112l205 54v-166h262v-171z" />
    <glyph glyph-name="tbar" unicode="&#x167;" horiz-adv-x="649" 
d="M627 423h-262v-59h190v-128h-188c8 -55 35 -75 107 -75c54 0 84 0 153 10v-166c-57 -10 -125 -15 -204 -15c-169 0 -263 57 -263 187v59h-85v128h85v59h-139v171h139v112l205 54v-166h262v-171z" />
    <glyph glyph-name="tcaron" unicode="&#x165;" horiz-adv-x="649" 
d="M468 894l-207 -80l-207 80v128l207 -80l207 80v-128zM627 423h-262v-147c0 -86 22 -115 109 -115c54 0 84 0 153 10v-166c-57 -10 -125 -15 -204 -15c-169 0 -263 57 -263 187v246h-139v171h139v112l205 54v-166h262v-171z" />
    <glyph glyph-name="uni0163" unicode="&#x163;" horiz-adv-x="649" 
d="M627 423h-262v-147c0 -86 22 -115 109 -115c54 0 84 0 153 10v-166c-47 -8 -101 -13 -163 -15l-14 -37c61 19 176 27 176 -69c0 -114 -162 -133 -316 -114v88c131 -19 182 0 182 35c0 24 -26 32 -104 14l-59 58l14 30c-118 17 -183 74 -183 182v246h-139v171h139v112
l205 54v-166h262v-171z" />
    <glyph glyph-name="uni021B" unicode="&#x21b;" horiz-adv-x="649" 
d="M627 423h-262v-147c0 -86 22 -115 109 -115c54 0 84 0 153 10v-166c-57 -10 -125 -15 -204 -15c-169 0 -263 57 -263 187v246h-139v171h139v112l205 54v-166h262v-171zM315 -223v114h178v-114l-92 -110h-86l63 110h-63z" />
    <glyph glyph-name="u" unicode="u" horiz-adv-x="882" 
d="M645 594h206v-594h-206v91c-78 -58 -182 -101 -316 -101c-146 0 -296 49 -297 266l1 338h205v-257c0 -114 40 -169 165 -169c93 0 192 46 242 99v327z" />
    <glyph glyph-name="uacute" unicode="&#xfa;" horiz-adv-x="882" 
d="M634 874v-128l-389 -80v128zM645 594h206v-594h-206v91c-78 -58 -182 -101 -316 -101c-146 0 -296 49 -297 266l1 338h205v-257c0 -114 40 -169 165 -169c93 0 192 46 242 99v327z" />
    <glyph glyph-name="ucircumflex" unicode="&#xfb;" horiz-adv-x="882" 
d="M647 666l-207 80l-207 -80v128l207 80l207 -80v-128zM645 594h206v-594h-206v91c-78 -58 -182 -101 -316 -101c-146 0 -296 49 -297 266l1 338h205v-257c0 -114 40 -169 165 -169c93 0 192 46 242 99v327z" />
    <glyph glyph-name="udieresis" unicode="&#xfc;" horiz-adv-x="882" 
d="M404 841v-162h-189v162h189zM664 841v-162h-189v162h189zM645 594h206v-594h-206v91c-78 -58 -182 -101 -316 -101c-146 0 -296 49 -297 266l1 338h205v-257c0 -114 40 -169 165 -169c93 0 192 46 242 99v327z" />
    <glyph glyph-name="ugrave" unicode="&#xf9;" horiz-adv-x="882" 
d="M635 794v-128l-389 80v128zM645 594h206v-594h-206v91c-78 -58 -182 -101 -316 -101c-146 0 -296 49 -297 266l1 338h205v-257c0 -114 40 -169 165 -169c93 0 192 46 242 99v327z" />
    <glyph glyph-name="uhungarumlaut" unicode="&#x171;" horiz-adv-x="882" 
d="M410 886v-132l-207 -80v132zM677 886v-132l-207 -80v132zM645 594h206v-594h-206v91c-78 -58 -182 -101 -316 -101c-146 0 -296 49 -297 266l1 338h205v-257c0 -114 40 -169 165 -169c93 0 192 46 242 99v327z" />
    <glyph glyph-name="umacron" unicode="&#x16b;" horiz-adv-x="882" 
d="M674 804v-128h-469v128h469zM645 594h206v-594h-206v91c-78 -58 -182 -101 -316 -101c-146 0 -296 49 -297 266l1 338h205v-257c0 -114 40 -169 165 -169c93 0 192 46 242 99v327z" />
    <glyph glyph-name="uogonek" unicode="&#x173;" horiz-adv-x="882" 
d="M720 -58c0 -43 70 -43 153 -43v-129c-187 0 -288 19 -288 117c0 44 26 80 77 113h-17v91c-78 -58 -182 -101 -316 -101c-146 0 -296 49 -297 266l1 338h205v-257c0 -114 40 -169 165 -169c93 0 192 46 242 99v327h206v-594h-87c-21 -17 -44 -34 -44 -58z" />
    <glyph glyph-name="uring" unicode="&#x16f;" horiz-adv-x="882" 
d="M440 660c-162 0 -210 49 -210 132s48 132 210 132c163 0 210 -49 210 -132s-47 -132 -210 -132zM440 840c-56 0 -95 -8 -95 -48s39 -48 95 -48c57 0 96 8 96 48s-39 48 -96 48zM645 594h206v-594h-206v91c-78 -58 -182 -101 -316 -101c-146 0 -296 49 -297 266l1 338h205
v-257c0 -114 40 -169 165 -169c93 0 192 46 242 99v327z" />
    <glyph glyph-name="v" unicode="v" horiz-adv-x="884" 
d="M637 594h225l-274 -594h-292l-275 594h226l195 -447z" />
    <glyph glyph-name="w" unicode="w" horiz-adv-x="1375" 
d="M1123 594h230l-257 -594h-260l-149 362l-149 -362h-259l-258 594h231l166 -419l156 419h227l156 -419z" />
    <glyph glyph-name="wacute" unicode="&#x1e83;" horiz-adv-x="1375" 
d="M881 874v-128l-389 -80v128zM1123 594h230l-257 -594h-260l-149 362l-149 -362h-259l-258 594h231l166 -419l156 419h227l156 -419z" />
    <glyph glyph-name="wcircumflex" unicode="&#x175;" horiz-adv-x="1375" 
d="M894 666l-207 80l-207 -80v128l207 80l207 -80v-128zM1123 594h230l-257 -594h-260l-149 362l-149 -362h-259l-258 594h231l166 -419l156 419h227l156 -419z" />
    <glyph glyph-name="wdieresis" unicode="&#x1e85;" horiz-adv-x="1375" 
d="M651 841v-162h-189v162h189zM911 841v-162h-189v162h189zM1123 594h230l-257 -594h-260l-149 362l-149 -362h-259l-258 594h231l166 -419l156 419h227l156 -419z" />
    <glyph glyph-name="wgrave" unicode="&#x1e81;" horiz-adv-x="1375" 
d="M882 794v-128l-389 80v128zM1123 594h230l-257 -594h-260l-149 362l-149 -362h-259l-258 594h231l166 -419l156 419h227l156 -419z" />
    <glyph glyph-name="x" unicode="x" horiz-adv-x="935" 
d="M21 0l304 297l-304 297h270l176 -185l176 185h270l-303 -297l303 -297h-270l-176 185l-176 -185h-270z" />
    <glyph glyph-name="y" unicode="y" horiz-adv-x="904" 
d="M658 594h224l-369 -844h-224l109 250h-99l-278 594h226l212 -455z" />
    <glyph glyph-name="yacute" unicode="&#xfd;" horiz-adv-x="904" 
d="M646 874v-128l-389 -80v128zM658 594h224l-369 -844h-224l109 250h-99l-278 594h226l212 -455z" />
    <glyph glyph-name="ycircumflex" unicode="&#x177;" horiz-adv-x="904" 
d="M659 666l-207 80l-207 -80v128l207 80l207 -80v-128zM658 594h224l-369 -844h-224l109 250h-99l-278 594h226l212 -455z" />
    <glyph glyph-name="ydieresis" unicode="&#xff;" horiz-adv-x="904" 
d="M416 841v-162h-189v162h189zM676 841v-162h-189v162h189zM658 594h224l-369 -844h-224l109 250h-99l-278 594h226l212 -455z" />
    <glyph glyph-name="ygrave" unicode="&#x1ef3;" horiz-adv-x="904" 
d="M647 794v-128l-389 80v128zM658 594h224l-369 -844h-224l109 250h-99l-278 594h226l212 -455z" />
    <glyph glyph-name="z" unicode="z" horiz-adv-x="757" 
d="M725 594v-171l-392 -252h392v-171h-694v171l393 252h-393v171h694z" />
    <glyph glyph-name="zacute" unicode="&#x17a;" horiz-adv-x="757" 
d="M572 874v-128l-389 -80v128zM725 594v-171l-392 -252h392v-171h-694v171l393 252h-393v171h694z" />
    <glyph glyph-name="zcaron" unicode="&#x17e;" horiz-adv-x="757" 
d="M584 748l-207 -80l-207 80v128l207 -80l207 80v-128zM725 594v-171l-392 -252h392v-171h-694v171l393 252h-393v171h694z" />
    <glyph glyph-name="zdotaccent" unicode="&#x17c;" horiz-adv-x="757" 
d="M487 841v-162h-218v162h218zM725 594v-171l-392 -252h392v-171h-694v171l393 252h-393v171h694z" />
    <glyph glyph-name="a.001" horiz-adv-x="853" 
d="M808 123c0 -45 0 -97 35 -123h-179c-63 0 -96 15 -96 73c-93 -68 -197 -83 -301 -83c-137 0 -257 49 -257 179c0 156 180 197 355 197c84 0 148 -11 203 -31c0 72 -76 75 -156 75c-77 0 -165 -7 -275 -31l-78 170c120 39 250 61 361 61c246 0 386 -84 388 -313v-174z
M568 196v25c-38 10 -90 15 -159 15c-111 0 -159 -10 -159 -48c0 -33 28 -38 89 -38c81 0 169 20 229 46z" />
    <glyph glyph-name="b.001" horiz-adv-x="846" 
d="M528 610c165 0 308 -68 308 -310s-143 -310 -308 -310c-116 0 -209 38 -268 105v-95h-240v800h241v-295c58 67 151 105 267 105zM428 190c107 0 168 22 168 110s-61 110 -168 110c-102 0 -162 -20 -168 -98v-23c6 -79 66 -99 168 -99z" />
    <glyph glyph-name="e.001" horiz-adv-x="854" 
d="M428 180c76 0 132 24 161 45l235 -40c-50 -119 -189 -195 -396 -195c-245 0 -408 88 -408 310s163 310 408 310c247 0 406 -106 406 -350h-569c17 -58 74 -80 163 -80zM428 440c-76 0 -129 -11 -153 -60h305c-24 49 -76 60 -152 60z" />
    <glyph glyph-name="m.001" horiz-adv-x="1316" 
d="M1068 610c125 0 228 -52 228 -219v-391h-240v283c0 93 -40 117 -108 117c-51 0 -103 -21 -170 -66v-334h-240v283c0 93 -40 117 -108 117c-51 0 -103 -21 -170 -66v-334h-240v600h240v-90c113 69 184 100 300 100c82 0 157 -26 194 -101c117 70 188 101 314 101z" />
    <glyph glyph-name="n.001" horiz-adv-x="858" 
d="M590 610c125 0 248 -42 248 -219v-391h-240v273c0 93 -37 127 -115 127c-61 0 -136 -21 -223 -66v-334h-240v600h240v-80c112 60 224 90 330 90z" />
    <glyph glyph-name="zero" unicode="0" horiz-adv-x="863" 
d="M431 -10c-278 0 -410 123 -410 361c0 237 132 359 410 359c277 0 410 -123 410 -359c0 -237 -133 -361 -410 -361zM431 176c141 0 190 72 190 175c0 102 -48 173 -190 173c-141 0 -190 -70 -190 -173c0 -104 50 -175 190 -175z" />
    <glyph glyph-name="one" unicode="1" horiz-adv-x="723" 
d="M471 186h220v-186h-660v186h221l2 278c-76 -67 -150 -67 -223 -67v186c103 0 220 0 220 117h220v-514z" />
    <glyph glyph-name="two" unicode="2" horiz-adv-x="837" 
d="M815 490c0 -249 -420 -196 -467 -304h457v-186h-784v106c0 276 574 231 574 360c0 43 -30 58 -152 58c-123 0 -189 -11 -189 -99h-220c0 236 164 285 399 285c241 0 382 -46 382 -220z" />
    <glyph glyph-name="three" unicode="3" horiz-adv-x="837" 
d="M712 350c65 -32 103 -81 103 -151c0 -160 -141 -209 -387 -209c-243 0 -407 49 -407 275h220c0 -84 72 -89 197 -89c118 0 157 5 157 57c0 57 -39 60 -257 60v114c215 0 257 3 257 60c0 49 -33 57 -157 57c-134 0 -197 -8 -197 -89h-220c0 226 164 275 407 275
c246 0 387 -49 387 -209c0 -70 -38 -119 -103 -151z" />
    <glyph glyph-name="four" unicode="4" horiz-adv-x="877" 
d="M845 283v-186h-120v-97h-220v97h-474v186l474 417h220v-417h120zM249 283h256v217z" />
    <glyph glyph-name="five" unicode="5" horiz-adv-x="837" 
d="M527 464c181 0 288 -87 288 -230c0 -174 -141 -244 -382 -244c-237 0 -412 46 -412 261h220c0 -64 72 -75 197 -75c121 0 157 33 157 92c0 55 -29 90 -138 90c-67 0 -130 -13 -230 -53l-174 31l90 364h622v-171h-464l-40 -121c89 36 152 56 266 56z" />
    <glyph glyph-name="six" unicode="6" horiz-adv-x="863" 
d="M506 464c192 0 325 -70 325 -231c0 -163 -133 -243 -380 -243c-293 0 -420 117 -420 343c0 290 172 377 378 377c174 0 290 -24 375 -42v-171c-99 19 -201 42 -331 42c-117 0 -180 -27 -197 -139c57 40 142 64 250 64zM431 161c142 0 180 36 180 97c0 60 -37 95 -180 95
c-134 0 -180 -34 -180 -95s45 -97 180 -97z" />
    <glyph glyph-name="seven" unicode="7" horiz-adv-x="783" 
d="M20 700h743v-186c-285 -140 -389 -334 -389 -514h-220c0 180 60 374 315 514h-449v186z" />
    <glyph glyph-name="eight" unicode="8" horiz-adv-x="863" 
d="M693 395c105 -33 148 -95 148 -185c0 -142 -95 -220 -410 -220s-410 77 -410 220c0 90 43 151 148 185c-52 30 -78 74 -78 133c0 125 95 182 340 182s340 -58 340 -182c0 -58 -26 -102 -78 -133zM431 560c-118 0 -148 -17 -148 -56s30 -57 148 -57c119 0 149 18 149 57
s-31 56 -149 56zM431 154c145 0 190 30 190 83s-44 82 -190 82c-145 0 -190 -29 -190 -82c0 -54 46 -83 190 -83z" />
    <glyph glyph-name="nine" unicode="9" horiz-adv-x="843" 
d="M402 710c293 0 420 -117 420 -343c0 -290 -172 -377 -378 -377c-174 0 -290 24 -375 42v171c99 -19 201 -42 331 -42c117 0 180 27 197 139c-57 -40 -142 -64 -250 -64c-192 0 -325 70 -325 231c0 163 133 243 380 243zM422 347c134 0 180 34 180 95s-45 97 -180 97
c-142 0 -180 -36 -180 -97c0 -60 37 -95 180 -95z" />
    <glyph glyph-name="fraction" unicode="&#x2044;" horiz-adv-x="536" 
d="M505 720l-260 -870h-213l260 870h213z" />
    <glyph glyph-name="asterisk" unicode="*" horiz-adv-x="568" 
d="M31 518l140 64l-140 63l72 124l125 -89l-16 120h144l-15 -120l124 89l72 -124l-140 -63l140 -64l-72 -123l-124 89l15 -121h-143l15 121l-125 -89z" />
    <glyph glyph-name="backslash" unicode="\" horiz-adv-x="536" 
d="M31 720h213l260 -870h-213z" />
    <glyph glyph-name="periodcentered" unicode="&#xb7;" 
d="M31 396h206v-157h-206v157z" />
    <glyph glyph-name="bullet" unicode="&#x2022;" horiz-adv-x="427" 
d="M214 191c-124 0 -183 41 -183 130c0 88 59 129 183 129s182 -41 182 -129c0 -89 -58 -130 -182 -130z" />
    <glyph glyph-name="colon" unicode=":" 
d="M31 457h206v-157h-206v157zM31 157h206v-157h-206v157z" />
    <glyph glyph-name="comma" unicode="," 
d="M31 157h206v-157l-97 -209h-94l59 209h-74v157z" />
    <glyph glyph-name="ellipsis" unicode="&#x2026;" horiz-adv-x="786" 
d="M31 157h206v-157h-206v157zM290 157h206v-157h-206v157zM548 157h206v-157h-206v157z" />
    <glyph glyph-name="exclam" unicode="!" horiz-adv-x="283" 
d="M251 700l-7 -471h-205l-8 471h220zM38 157h206v-157h-206v157z" />
    <glyph glyph-name="exclamdown" unicode="&#xa1;" horiz-adv-x="283" 
d="M38 443v157h206v-157h-206zM251 -100h-220l8 471h205z" />
    <glyph glyph-name="numbersign" unicode="#" horiz-adv-x="1278" 
d="M1226 394h-213l-57 -188h170v-172h-221l-55 -184h-213l55 184h-252l-55 -184h-213l55 184h-176v172h227l57 188h-184v172h235l46 154h213l-46 -154h252l46 154h213l-46 -154h162v-172zM743 206l57 188h-252l-57 -188h252z" />
    <glyph glyph-name="period" unicode="." 
d="M31 157h206v-157h-206v157z" />
    <glyph glyph-name="question" unicode="?" horiz-adv-x="817" 
d="M470 229h-206c0 218 301 129 301 238c0 39 -36 57 -137 57c-111 0 -177 -11 -177 -91h-220c0 228 164 277 387 277c226 0 367 -49 367 -207c0 -206 -287 -159 -315 -274zM263 157h206v-157h-206v157z" />
    <glyph glyph-name="questiondown" unicode="&#xbf;" horiz-adv-x="817" 
d="M554 443h-206v157h206v-157zM347 371h206c0 -218 -301 -129 -301 -238c0 -39 36 -57 137 -57c111 0 177 11 177 91h220c0 -228 -164 -277 -387 -277c-226 0 -367 49 -367 207c0 206 287 159 315 274z" />
    <glyph glyph-name="quotedbl" unicode="&#x22;" horiz-adv-x="566" 
d="M251 720l-17 -320h-185l-18 320h220zM534 720l-17 -320h-185l-18 320h220z" />
    <glyph glyph-name="quotesingle" unicode="'" horiz-adv-x="283" 
d="M251 720l-17 -320h-185l-18 320h220z" />
    <glyph glyph-name="semicolon" unicode=";" 
d="M31 457h206v-157h-206v157zM31 0v157h206v-157l-97 -209h-94l59 209h-74z" />
    <glyph glyph-name="slash" unicode="/" horiz-adv-x="536" 
d="M505 720l-260 -870h-213l260 870h213z" />
    <glyph glyph-name="underscore" unicode="_" horiz-adv-x="1103" 
d="M51 -51h1000v-158h-1000v158z" />
    <glyph glyph-name="braceleft" unicode="{" horiz-adv-x="633" 
d="M31 181v240c88 0 148 0 148 100c0 220 64 279 422 279v-186c-198 0 -260 -20 -260 -163c0 -120 -91 -130 -130 -130v-40c39 0 130 -10 130 -130c0 -145 62 -165 260 -165v-186c-373 0 -422 61 -422 281c0 100 -60 100 -148 100z" />
    <glyph glyph-name="braceright" unicode="}" horiz-adv-x="633" 
d="M602 181c-88 0 -148 0 -148 -100c0 -220 -49 -281 -422 -281v186c198 0 260 20 260 165c0 120 91 130 130 130v40c-39 0 -130 10 -130 130c0 143 -62 163 -260 163v186c358 0 422 -59 422 -279c0 -100 60 -100 148 -100v-240z" />
    <glyph glyph-name="bracketleft" unicode="[" horiz-adv-x="633" 
d="M601 614h-350v-628h350v-186h-570v1000h570v-186z" />
    <glyph glyph-name="bracketright" unicode="]" horiz-adv-x="633" 
d="M602 800v-1000h-570v186h350v628h-350v186h570z" />
    <glyph glyph-name="parenleft" unicode="(" horiz-adv-x="633" 
d="M31 301c0 383 144 499 570 499v-186c-284 0 -350 -65 -350 -313c0 -249 67 -315 350 -315v-186c-426 0 -570 117 -570 501z" />
    <glyph glyph-name="parenright" unicode=")" horiz-adv-x="633" 
d="M602 301c0 -384 -144 -501 -570 -501v186c283 0 350 66 350 315c0 248 -66 313 -350 313v186c426 0 570 -116 570 -499z" />
    <glyph glyph-name="emdash" unicode="&#x2014;" horiz-adv-x="1303" 
d="M51 426h1200v-172h-1200v172z" />
    <glyph glyph-name="endash" unicode="&#x2013;" horiz-adv-x="1103" 
d="M51 426h1000v-172h-1000v172z" />
    <glyph glyph-name="hyphen" unicode="-" horiz-adv-x="903" 
d="M51 426h800v-172h-800v172z" />
    <glyph glyph-name="guillemotleft" unicode="&#xab;" horiz-adv-x="991" 
d="M291 594h282l-260 -297l260 -297h-282l-260 297zM678 594h282l-260 -297l260 -297h-282l-260 297z" />
    <glyph glyph-name="guillemotright" unicode="&#xbb;" horiz-adv-x="1003" 
d="M325 594l260 -297l-260 -297h-282l260 297l-260 297h282zM712 594l260 -297l-260 -297h-282l260 297l-260 297h282z" />
    <glyph glyph-name="guilsinglleft" unicode="&#x2039;" horiz-adv-x="604" 
d="M291 594h282l-260 -297l260 -297h-282l-260 297z" />
    <glyph glyph-name="guilsinglright" unicode="&#x203a;" horiz-adv-x="604" 
d="M313 594l260 -297l-260 -297h-282l260 297l-260 297h282z" />
    <glyph glyph-name="quotedblbase" unicode="&#x201e;" horiz-adv-x="526" 
d="M31 0v157h206v-157l-97 -209h-94l59 209h-74zM288 157h206v-157l-97 -209h-94l59 209h-74v157z" />
    <glyph glyph-name="quotedblleft" unicode="&#x201c;" horiz-adv-x="583" 
d="M39 400l67 320h179l-40 -320h-206zM296 400l67 320h179l-40 -320h-206z" />
    <glyph glyph-name="quotedblright" unicode="&#x201d;" horiz-adv-x="571" 
d="M287 720l-67 -320h-179l40 320h206zM544 720l-67 -320h-179l40 320h206z" />
    <glyph glyph-name="quoteleft" unicode="&#x2018;" horiz-adv-x="314" 
d="M27 400l67 320h179l-40 -320h-206z" />
    <glyph glyph-name="quoteright" unicode="&#x2019;" horiz-adv-x="329" 
d="M287 720l-67 -320h-179l40 320h206z" />
    <glyph glyph-name="quotesinglbase" unicode="&#x201a;" 
d="M31 157h206v-157l-97 -209h-94l59 209h-74v157z" />
    <glyph glyph-name="space" unicode=" " horiz-adv-x="429" 
 />
    <glyph glyph-name="cent" unicode="&#xa2;" horiz-adv-x="915" 
d="M525 217c68 8 113 32 129 81h210c-22 -163 -147 -239 -339 -253v-145h-120v144c-218 13 -354 103 -354 306s136 293 354 306v144h120v-145c192 -14 317 -90 339 -253h-210c-16 49 -61 73 -129 81v-266zM257 350c0 -89 54 -125 148 -134v268c-94 -9 -148 -45 -148 -134z
" />
    <glyph glyph-name="currency" unicode="&#xa4;" horiz-adv-x="919" 
d="M867 347c0 -108 -38 -184 -107 -233l106 -106l-83 -83l-137 137c-54 -15 -117 -22 -187 -22c-65 0 -124 6 -175 19l-134 -134l-83 83l100 100c-74 49 -116 127 -116 239c0 111 41 189 114 238l-98 98l83 83l131 -131c52 13 112 19 178 19c71 0 135 -7 190 -22l134 134
l83 -83l-104 -104c67 -49 105 -125 105 -232zM257 347c0 -105 70 -136 202 -136c133 0 203 31 203 136s-70 136 -203 136c-132 0 -202 -31 -202 -136z" />
    <glyph glyph-name="dollar" unicode="$" horiz-adv-x="997" 
d="M945 223c0 -175 -143 -226 -380 -232v-91h-120v91c-251 7 -394 62 -394 253h220c0 -47 36 -75 174 -82v117c-271 15 -378 69 -378 220c0 145 137 204 378 210v91h120v-92c223 -12 350 -81 350 -240h-220c0 44 -40 62 -130 68v-105c236 -14 380 -42 380 -208zM287 488
c0 -37 27 -44 158 -51v102c-128 -1 -158 -14 -158 -51zM565 162c128 3 160 19 160 55c0 39 -24 49 -160 56v-111z" />
    <glyph glyph-name="Euro" unicode="&#x20ac;" horiz-adv-x="843" 
d="M534 624c-106 0 -153 -40 -172 -126h313v-114h-324v-33v-33h324v-114h-313c19 -87 65 -128 172 -128c74 0 147 10 257 30v-186c-110 -20 -183 -30 -284 -30c-228 0 -336 100 -367 314h-89v114h80v33v33h-80v114h90c31 207 140 312 366 312c101 0 174 -10 284 -30v-186
c-110 20 -183 30 -257 30z" />
    <glyph glyph-name="sterling" unicode="&#xa3;" horiz-adv-x="843" 
d="M554 624c-157 0 -179 -62 -164 -192h285v-114h-275c1 -120 -47 -177 -129 -232h520v-186h-740v186c89 70 135 110 132 232h-132v114h120c-36 250 51 378 336 378c101 0 174 -10 284 -30v-186c-100 20 -163 30 -237 30z" />
    <glyph glyph-name="yen" unicode="&#xa5;" horiz-adv-x="1075" 
d="M1023 800l-338 -423h245v-114h-283v-66h283v-114h-283v-183h-220v183h-281v114h281v66h-281v114h243l-338 423h260l226 -289l227 289h259z" />
    <glyph glyph-name="plus" unicode="+" horiz-adv-x="903" 
d="M851 426v-172h-311v-254h-206v254h-283v172h283v254h206v-254h311z" />
    <glyph glyph-name="minus" unicode="&#x2212;" horiz-adv-x="903" 
d="M51 426h800v-172h-800v172z" />
    <glyph glyph-name="multiply" unicode="&#xd7;" horiz-adv-x="882" 
d="M831 459l-218 -126l217 -125l-86 -149l-303 175l-303 -175l-86 149l217 125l-218 126l86 149l304 -175l304 175z" />
    <glyph glyph-name="divide" unicode="&#xf7;" horiz-adv-x="903" 
d="M348 657h206v-157h-206v157zM51 426h800v-172h-800v172zM348 180h206v-157h-206v157z" />
    <glyph glyph-name="equal" unicode="=" horiz-adv-x="903" 
d="M51 586h800v-172h-800v172zM51 266h800v-172h-800v172z" />
    <glyph glyph-name="notequal" unicode="&#x2260;" horiz-adv-x="903" 
d="M851 414h-270l-44 -148h314v-172h-366l-56 -189h-213l56 189h-221v172h273l44 148h-317v172h369l56 189h213l-56 -189h218v-172z" />
    <glyph glyph-name="greater" unicode="&#x3e;" horiz-adv-x="813" 
d="M51 600l710 -120v-280l-710 -120v176l557 84l-557 84v176z" />
    <glyph glyph-name="less" unicode="&#x3c;" horiz-adv-x="813" 
d="M762 600v-176l-557 -84l557 -84v-176l-710 120v280z" />
    <glyph glyph-name="greaterequal" unicode="&#x2265;" horiz-adv-x="813" 
d="M51 700l710 -117v-249l-710 -117v174l551 68l-551 67v174zM51 0v171h710v-171h-710z" />
    <glyph glyph-name="lessequal" unicode="&#x2264;" horiz-adv-x="813" 
d="M762 700v-174l-551 -67l551 -68v-174l-710 117v249zM52 0v171h710v-171h-710z" />
    <glyph glyph-name="plusminus" unicode="&#xb1;" horiz-adv-x="903" 
d="M540 556h311v-172h-311v-144h-206v144h-283v172h283v144h206v-144zM51 14v172h800v-172h-800z" />
    <glyph glyph-name="approxequal" unicode="&#x2248;" horiz-adv-x="903" 
d="M51 380c0 200 53 320 220 320c156 0 185 -134 303 -134c56 0 86 28 86 134h191c0 -200 -53 -320 -220 -320c-155 0 -184 134 -302 134c-56 0 -86 -28 -86 -134h-192zM51 0c0 200 53 320 220 320c156 0 185 -134 303 -134c56 0 86 28 86 134h191
c0 -200 -53 -320 -220 -320c-155 0 -184 134 -302 134c-56 0 -86 -28 -86 -134h-192z" />
    <glyph glyph-name="asciitilde" unicode="~" horiz-adv-x="903" 
d="M51 180c0 200 53 320 220 320c156 0 185 -134 303 -134c56 0 86 28 86 134h191c0 -200 -53 -320 -220 -320c-155 0 -184 134 -302 134c-56 0 -86 -28 -86 -134h-192z" />
    <glyph glyph-name="logicalnot" unicode="&#xac;" horiz-adv-x="903" 
d="M851 426v-359h-205v187h-595v172h800z" />
    <glyph glyph-name="emptyset" unicode="&#x2205;" horiz-adv-x="1147" 
d="M1094 748l-110 -110c61 -78 92 -177 92 -287c0 -259 -173 -461 -502 -461c-109 0 -202 22 -276 62l-123 -123l-122 123l111 111c-61 78 -93 178 -93 288c0 259 175 459 503 459c109 0 202 -22 276 -61l122 122zM277 351c0 -57 10 -106 28 -147l411 411
c-39 16 -87 24 -142 24c-196 0 -297 -104 -297 -288zM871 351c0 57 -9 105 -28 146l-412 -412c40 -16 88 -24 143 -24c196 0 297 105 297 290z" />
    <glyph glyph-name="infinity" unicode="&#x221e;" horiz-adv-x="1286" 
d="M51 299c0 170 108 283 289 283c129 0 214 -55 303 -174c89 119 173 174 302 174c181 0 289 -113 289 -283c0 -175 -99 -279 -289 -279c-129 0 -214 54 -303 172c-89 -118 -173 -172 -302 -172c-190 0 -289 104 -289 279zM257 299c0 -76 28 -108 112 -108
c55 0 103 22 163 109c-61 88 -109 111 -163 111c-74 0 -112 -39 -112 -112zM754 299c58 -86 107 -108 163 -108c84 0 112 32 112 108c0 73 -38 112 -112 112c-54 0 -103 -23 -163 -112z" />
    <glyph glyph-name="integral" unicode="&#x222b;" horiz-adv-x="976" 
d="M51 -150v171c103 0 254 -3 299 177l64 254c84 349 311 348 510 348v-171c-102 0 -253 3 -298 -177l-64 -254c-84 -349 -312 -348 -511 -348z" />
    <glyph glyph-name="product" unicode="&#x220f;" horiz-adv-x="1286" 
d="M1234 720v-200h-216v-670h-206v670h-338v-670h-206v670h-217v200h1183z" />
    <glyph glyph-name="summation" unicode="&#x2211;" horiz-adv-x="843" 
d="M791 800v-171h-477l317 -304l-317 -304h477v-171h-740v171l318 304l-318 304v171h740z" />
    <glyph glyph-name="radical" unicode="&#x221a;" horiz-adv-x="1333" 
d="M1281 800v-171h-271l-263 -779h-311l-150 330h-235v171h369l169 -351l265 800h427z" />
    <glyph glyph-name="partialdiff" unicode="&#x2202;" horiz-adv-x="966" 
d="M271 800c343 -20 643 -220 643 -554c0 -289 -232 -396 -471 -396s-392 80 -392 288c0 168 97 282 330 282c139 0 245 -55 325 -123c-27 209 -221 310 -461 329zM438 21c108 0 194 32 239 101c-84 94 -191 127 -267 127c-94 0 -153 -27 -153 -111c0 -78 52 -117 181 -117z
" />
    <glyph glyph-name="percent" unicode="%" horiz-adv-x="1667" 
d="M356 259c-222 0 -305 123 -305 276c0 152 83 275 305 275c224 0 306 -123 306 -275c0 -153 -82 -276 -306 -276zM1071 800l-260 -870h-213l260 870h213zM356 430c62 0 101 19 101 105s-39 104 -101 104c-60 0 -99 -18 -99 -104s39 -105 99 -105zM1309 -80
c-222 0 -305 123 -305 276c0 152 83 275 305 275c224 0 306 -123 306 -275c0 -153 -82 -276 -306 -276zM1309 91c62 0 101 19 101 105s-39 104 -101 104c-60 0 -99 -18 -99 -104s39 -105 99 -105z" />
    <glyph glyph-name="perthousand" unicode="&#x2030;" horiz-adv-x="2344" 
d="M356 259c-222 0 -305 123 -305 276c0 152 83 275 305 275c224 0 306 -123 306 -275c0 -153 -82 -276 -306 -276zM1071 800l-260 -870h-213l260 870h213zM356 430c62 0 101 19 101 105s-39 104 -101 104c-60 0 -99 -18 -99 -104s39 -105 99 -105zM1309 -80
c-222 0 -305 123 -305 276c0 152 83 275 305 275c224 0 306 -123 306 -275c0 -153 -82 -276 -306 -276zM1986 -80c-222 0 -305 123 -305 276c0 152 83 275 305 275c223 0 306 -123 306 -275c0 -153 -83 -276 -306 -276zM1309 91c62 0 101 19 101 105s-39 104 -101 104
c-60 0 -99 -18 -99 -104s39 -105 99 -105zM1986 91c62 0 100 19 100 105s-38 104 -100 104c-60 0 -99 -18 -99 -104s39 -105 99 -105z" />
    <glyph glyph-name="arrowup" unicode="&#x2191;" horiz-adv-x="1108" 
d="M554 -110c-328 0 -503 202 -503 461s175 459 503 459c329 0 502 -200 502 -459s-173 -461 -502 -461zM625 30v389l117 -124l99 111l-288 284l-286 -284l100 -111l117 124v-389h141z" />
    <glyph glyph-name="uni2197" unicode="&#x2197;" horiz-adv-x="1108" 
d="M554 -110c-328 0 -503 202 -503 461s175 459 503 459c329 0 502 -200 502 -459s-173 -461 -502 -461zM388 84l275 275l-5 -173l148 11l-2 404l-403 1l-11 -148l173 5l-275 -275z" />
    <glyph glyph-name="arrowright" unicode="&#x2192;" horiz-adv-x="1108" 
d="M554 -110c-328 0 -503 202 -503 461s175 459 503 459c329 0 502 -200 502 -459s-173 -461 -502 -461zM233 279h389l-124 -116l111 -100l284 288l-284 286l-111 -100l124 -116h-389v-142z" />
    <glyph glyph-name="uni2198" unicode="&#x2198;" horiz-adv-x="1108" 
d="M554 810c329 0 502 -202 502 -461s-173 -459 -502 -459c-328 0 -503 200 -503 459s175 461 503 461zM388 616l-100 -100l275 -275l-173 5l11 -148l403 1l2 404l-148 11l5 -173z" />
    <glyph glyph-name="arrowdown" unicode="&#x2193;" horiz-adv-x="1108" 
d="M554 810c329 0 502 -202 502 -461s-173 -459 -502 -459c-328 0 -503 200 -503 459s175 461 503 461zM625 670h-141v-389l-117 124l-100 -111l286 -284l288 284l-99 111l-117 -124v389z" />
    <glyph glyph-name="uni2199" unicode="&#x2199;" horiz-adv-x="1108" 
d="M554 810c328 0 503 -202 503 -461s-175 -459 -503 -459c-329 0 -502 200 -502 459s173 461 502 461zM720 616l-275 -275l5 173l-148 -11l2 -404l403 -1l11 148l-173 -5l275 275z" />
    <glyph glyph-name="arrowleft" unicode="&#x2190;" horiz-adv-x="1108" 
d="M554 -110c-329 0 -502 202 -502 461s173 459 502 459c328 0 503 -200 503 -459s-175 -461 -503 -461zM875 279v142h-389l124 116l-111 100l-284 -286l284 -288l111 100l-124 116h389z" />
    <glyph glyph-name="uni2196" unicode="&#x2196;" horiz-adv-x="1108" 
d="M554 -110c-329 0 -502 202 -502 461s173 459 502 459c328 0 503 -200 503 -459s-175 -461 -503 -461zM720 84l100 100l-275 275l173 -5l-11 148l-403 -1l-2 -404l148 -11l-5 173z" />
    <glyph glyph-name="arrowboth" unicode="&#x2194;" horiz-adv-x="1108" 
d="M554 -110c-328 0 -503 202 -503 461s175 459 503 459c329 0 502 -200 502 -459s-173 -461 -502 -461zM940 349l-214 288l-112 -100l96 -119h-309l96 119l-113 100l-216 -289l216 -285l113 100l-96 118l309 1l-96 -119l112 -100z" />
    <glyph glyph-name="arrowupdn" unicode="&#x2195;" horiz-adv-x="1108" 
d="M554 -110c-328 0 -503 202 -503 461s175 459 503 459c329 0 502 -200 502 -459s-173 -461 -502 -461zM555 720l-288 -214l100 -112l120 96v-278l-120 96l-100 -112l289 -216l285 216l-99 112l-120 -96v278l120 -96l99 112z" />
    <glyph glyph-name="lozenge" unicode="&#x25ca;" horiz-adv-x="904" 
d="M590 800l262 -450l-262 -450h-275l-264 450l264 450h275zM452 3l202 347l-202 347l-203 -347z" />
    <glyph glyph-name="at" unicode="@" horiz-adv-x="1210" 
d="M650 810c367 0 508 -128 508 -413v-406h-205v73c-53 -53 -135 -81 -244 -83c-168 -2 -318 54 -318 280c0 227 150 278 318 280c108 2 189 -26 242 -79c-13 159 -168 177 -291 177c-243 0 -403 -105 -403 -371c0 -348 201 -385 637 -385l-10 -171
c-616 0 -833 131 -833 556c0 352 226 542 599 542zM775 153c105 0 171 20 177 95v27c-7 75 -72 95 -177 95c-112 0 -178 -22 -178 -109c0 -86 66 -108 178 -108z" />
    <glyph glyph-name="ampersand" unicode="&#x26;" horiz-adv-x="1066" 
d="M1035 143l-89 -143c-64 31 -124 59 -179 86c-103 -65 -226 -96 -374 -96c-250 0 -362 76 -362 203c0 131 113 176 217 197c-44 46 -64 93 -64 147c0 115 105 173 302 173c165 0 297 -58 297 -163c0 -87 -86 -140 -233 -182c43 -23 97 -50 163 -80c34 32 64 68 91 108
l183 -70c-27 -46 -56 -86 -87 -122c42 -18 87 -37 135 -58zM486 567c-61 0 -96 -19 -96 -57c0 -24 15 -48 57 -80c79 20 130 46 130 86c0 32 -31 51 -91 51zM406 161c58 0 109 9 155 26c-92 47 -164 88 -221 127c-61 -18 -103 -40 -103 -78c0 -50 55 -75 169 -75z" />
    <glyph glyph-name="paragraph" unicode="&#xb6;" horiz-adv-x="932" 
d="M368 720h205v-870h-205v447c-159 0 -317 6 -317 212c0 205 158 211 317 211zM674 720h206v-870h-206v870z" />
    <glyph glyph-name="section" unicode="&#xa7;" horiz-adv-x="861" 
d="M730 197c55 -35 80 -82 80 -146c0 -180 -178 -211 -377 -211c-213 0 -370 39 -370 211h206c0 -60 54 -68 177 -68c117 0 158 7 158 58c0 53 -28 60 -200 70c-261 15 -331 79 -331 190c0 47 17 96 59 152c-55 35 -81 82 -81 146c0 180 179 211 377 211
c213 0 370 -40 370 -211h-205c0 60 -55 68 -177 68c-118 0 -159 -7 -159 -58c0 -53 28 -61 200 -72c261 -14 332 -77 332 -188c0 -47 -17 -95 -59 -152zM274 401c-70 -106 3 -122 144 -132c65 -4 121 -11 168 -21c71 107 -2 122 -143 132c-65 4 -121 11 -169 21z" />
    <glyph glyph-name="copyright" unicode="&#xa9;" horiz-adv-x="1108" 
d="M554 -110c-328 0 -503 202 -503 461s175 459 503 459c329 0 502 -200 502 -459s-173 -461 -502 -461zM554 4c238 0 388 119 388 347s-149 345 -388 345s-388 -118 -388 -345c0 -228 150 -347 388 -347zM264 350c0 158 109 221 291 221c169 0 275 -54 289 -189h-159
c-13 48 -69 58 -130 58c-77 0 -134 -15 -134 -90s57 -90 134 -90c61 0 117 10 130 58h159c-14 -135 -120 -189 -289 -189c-182 0 -291 63 -291 221z" />
    <glyph glyph-name="registered" unicode="&#xae;" horiz-adv-x="775" 
d="M387 810c225 0 336 -126 336 -302s-111 -302 -336 -302s-336 126 -336 302s111 302 336 302zM387 306c151 0 236 67 236 202s-85 202 -236 202c-150 0 -236 -67 -236 -202s86 -202 236 -202zM544 539c0 -38 -19 -67 -49 -82l45 -72h-92l-37 62h-78v-62h-77v246h193
c56 0 95 -37 95 -92zM333 566v-54h99c14 0 34 0 34 27s-20 27 -34 27h-99z" />
    <glyph glyph-name="trademark" unicode="&#x2122;" horiz-adv-x="1061" 
d="M467 799v-90h-155v-248h-106v248h-155v90h416zM1009 799v-338h-106v198l-117 -198h-72l-117 199v-199h-106v338h136l123 -216l123 216h136z" />
    <glyph glyph-name="degree" unicode="&#xb0;" horiz-adv-x="714" 
d="M356 259c-222 0 -305 123 -305 276c0 152 83 275 305 275c224 0 306 -123 306 -275c0 -153 -82 -276 -306 -276zM356 430c68 0 101 22 101 105s-33 104 -101 104c-66 0 -99 -21 -99 -104s33 -105 99 -105z" />
    <glyph glyph-name="bar" unicode="|" horiz-adv-x="309" 
d="M51 720h206v-870h-206v870z" />
    <glyph glyph-name="brokenbar" unicode="&#xa6;" horiz-adv-x="309" 
d="M51 720h206v-345h-206v345zM51 195h206v-345h-206v345z" />
    <glyph glyph-name="dagger" unicode="&#x2020;" horiz-adv-x="903" 
d="M851 506v-172h-296v-484h-206v484h-298v172h298v214h206v-214h296z" />
    <glyph glyph-name="daggerdbl" unicode="&#x2021;" horiz-adv-x="903" 
d="M851 334h-296v-98h296v-172h-296v-214h-206v214h-298v172h298v98h-298v172h298v214h206v-214h296v-172z" />
    <glyph glyph-name="asciicircum" unicode="^" horiz-adv-x="904" 
d="M852 350h-198l-202 347l-203 -347h-198l264 450h275z" />
    <glyph glyph-name="uni0308" unicode="&#x308;" horiz-adv-x="0" 
d="M-500 841h189v-162h-189v162zM-240 841h189v-162h-189v162z" />
    <glyph glyph-name="uni0307" unicode="&#x307;" horiz-adv-x="0" 
d="M-269 841h218v-162h-218v162z" />
    <glyph glyph-name="gravecomb" unicode="&#x300;" horiz-adv-x="0" 
d="M-51 794v-128l-389 80v128z" />
    <glyph glyph-name="acutecomb" unicode="&#x301;" horiz-adv-x="0" 
d="M-441 794l389 80v-128l-389 -80v128z" />
    <glyph glyph-name="uni030B" unicode="&#x30b;" horiz-adv-x="0" 
d="M-526 806l207 80v-132l-207 -80v132zM-259 806l207 80v-132l-207 -80v132z" />
    <glyph glyph-name="uni0302" unicode="&#x302;" horiz-adv-x="0" 
d="M-259 874l207 -80v-128l-207 80l-207 -80v128z" />
    <glyph glyph-name="uni030C" unicode="&#x30c;" horiz-adv-x="0" 
d="M-260 796l207 80v-128l-207 -80l-207 80v128z" />
    <glyph glyph-name="uni0306" unicode="&#x306;" horiz-adv-x="0" 
d="M-506 870h115c0 -76 38 -106 112 -106s113 30 113 106h114c0 -177 -103 -217 -227 -217s-227 40 -227 217z" />
    <glyph glyph-name="uni030A" unicode="&#x30a;" horiz-adv-x="0" 
d="M-262 660c-162 0 -210 49 -210 132s48 132 210 132c163 0 210 -49 210 -132s-47 -132 -210 -132zM-262 744c57 0 96 8 96 48s-39 48 -96 48c-56 0 -95 -8 -95 -48s39 -48 95 -48z" />
    <glyph glyph-name="tildecomb" unicode="&#x303;" horiz-adv-x="0" 
d="M-632 670c0 106 39 210 149 210c109 0 134 -84 216 -84c40 0 53 25 53 74h162c0 -106 -38 -210 -148 -210c-109 0 -134 84 -216 84c-40 0 -53 -25 -53 -74h-163z" />
    <glyph glyph-name="uni0304" unicode="&#x304;" horiz-adv-x="0" 
d="M-521 804h469v-128h-469v128z" />
    <glyph glyph-name="uni0312" unicode="&#x312;" horiz-adv-x="0" 
d="M-51 703h-178v114l92 110h86l-63 -110h63v-114z" />
    <glyph glyph-name="uni0326" unicode="&#x326;" horiz-adv-x="0" 
d="M-229 -53h178v-114l-92 -110h-86l63 110h-63v114z" />
    <glyph glyph-name="uni0327" unicode="&#x327;" horiz-adv-x="0" 
d="M-228 -47c61 19 176 27 176 -69c0 -114 -162 -133 -316 -114v88c131 -19 182 0 182 35c0 24 -26 32 -104 14l-59 58l16 35h123z" />
    <glyph glyph-name="uni0328" unicode="&#x328;" horiz-adv-x="0" 
d="M-52 -101v-129c-187 0 -288 19 -288 117c0 44 26 80 77 113h102c-21 -17 -44 -34 -44 -58c0 -43 70 -43 153 -43z" />
    <glyph glyph-name="uni0335" unicode="&#x335;" horiz-adv-x="0" 
d="M-532 404h480v-128h-480v128z" />
    <glyph glyph-name="uni0336" unicode="&#x336;" horiz-adv-x="0" 
d="M-1052 404h1000v-128h-1000v128z" />
    <glyph glyph-name="uni0337" unicode="&#x337;" horiz-adv-x="0" 
d="M-31 720l-260 -870h-213l260 870h213z" />
    <glyph glyph-name="uni0338" unicode="&#x338;" horiz-adv-x="0" 
d="M-66 720l-260 -870h-158l260 870h158z" />
    <glyph glyph-name="acute" unicode="&#xb4;" horiz-adv-x="492" 
d="M51 794l389 80v-128l-389 -80v128z" />
    <glyph glyph-name="breve" unicode="&#x2d8;" horiz-adv-x="557" 
d="M51 870h115c0 -76 38 -106 112 -106s113 30 113 106h114c0 -177 -103 -217 -227 -217s-227 40 -227 217z" />
    <glyph glyph-name="caron" unicode="&#x2c7;" horiz-adv-x="517" 
d="M257 796l207 80v-128l-207 -80l-207 80v128z" />
    <glyph glyph-name="cedilla" unicode="&#xb8;" horiz-adv-x="419" 
d="M191 -47c61 19 176 27 176 -69c0 -114 -162 -133 -316 -114v88c131 -19 182 0 182 35c0 24 -26 32 -104 14l-59 58l16 35h123z" />
    <glyph glyph-name="circumflex" unicode="&#x2c6;" horiz-adv-x="517" 
d="M258 874l207 -80v-128l-207 80l-207 -80v128z" />
    <glyph glyph-name="dieresis" unicode="&#xa8;" horiz-adv-x="551" 
d="M51 841h189v-162h-189v162zM311 841h189v-162h-189v162z" />
    <glyph glyph-name="dotaccent" unicode="&#x2d9;" horiz-adv-x="320" 
d="M51 841h218v-162h-218v162z" />
    <glyph glyph-name="grave" unicode="`" horiz-adv-x="492" 
d="M441 794v-128l-389 80v128z" />
    <glyph glyph-name="hungarumlaut" unicode="&#x2dd;" horiz-adv-x="577" 
d="M51 806l207 80v-132l-207 -80v132zM318 806l207 80v-132l-207 -80v132z" />
    <glyph glyph-name="macron" unicode="&#xaf;" horiz-adv-x="572" 
d="M51 804h469v-128h-469v128z" />
    <glyph glyph-name="ogonek" unicode="&#x2db;" horiz-adv-x="391" 
d="M339 -101v-129c-187 0 -288 19 -288 117c0 44 26 80 77 113h102c-21 -17 -44 -34 -44 -58c0 -43 70 -43 153 -43z" />
    <glyph glyph-name="ring" unicode="&#x2da;" horiz-adv-x="523" 
d="M261 660c-162 0 -210 49 -210 132s48 132 210 132c163 0 210 -49 210 -132s-47 -132 -210 -132zM261 744c57 0 96 8 96 48s-39 48 -96 48c-56 0 -95 -8 -95 -48s39 -48 95 -48z" />
    <glyph glyph-name="tilde" unicode="&#x2dc;" horiz-adv-x="683" 
d="M51 670c0 106 39 210 149 210c109 0 134 -84 216 -84c40 0 53 25 53 74h162c0 -106 -38 -210 -148 -210c-109 0 -134 84 -216 84c-40 0 -53 -25 -53 -74h-163z" />
    </font>
</defs>
</svg>
